<svg width="47" height="45" viewBox="0 0 47 45" fill="none" xmlns="http://www.w3.org/2000/svg">
<g opacity="0.8">
<path d="M23.4822 9.00024H23.4753C15.8347 9.00024 9.62134 15.055 9.62134 22.5002C9.62134 25.4534 10.5983 28.1905 12.2594 30.4129L10.5325 35.4282L15.8589 33.7694C18.0501 35.1835 20.664 36.0002 23.4822 36.0002C31.1229 36.0002 37.3362 29.9438 37.3362 22.5002C37.3362 15.0567 31.1229 9.00024 23.4822 9.00024ZM31.5455 28.0639C31.2112 28.9836 29.8843 29.7464 28.826 29.9691C28.1019 30.1193 27.1562 30.2391 23.9724 28.9532C19.9001 27.3096 17.2776 23.2782 17.0732 23.0166C16.8774 22.7551 15.4276 20.8819 15.4276 18.9447C15.4276 17.0074 16.4375 16.0641 16.8445 15.6591C17.1788 15.3267 17.7314 15.1748 18.2614 15.1748C18.4329 15.1748 18.5871 15.1832 18.7257 15.19C19.1327 15.2069 19.3371 15.2305 19.6056 15.8566C19.9399 16.6412 20.754 18.5785 20.851 18.7776C20.9498 18.9767 21.0485 19.2467 20.9099 19.5083C20.78 19.7783 20.6657 19.8981 20.4613 20.1276C20.2569 20.3571 20.0629 20.5326 19.8585 20.779C19.6714 20.9933 19.4601 21.2228 19.6957 21.6194C19.9313 22.0075 20.7454 23.3018 21.944 24.3413C23.4909 25.6829 24.745 26.1115 25.1936 26.2937C25.5279 26.4287 25.9263 26.3967 26.1706 26.1436C26.4806 25.8179 26.8634 25.2779 27.2532 24.7463C27.5303 24.3649 27.8802 24.3177 28.2474 24.4527C28.6216 24.5792 30.6015 25.5327 31.0085 25.7301C31.4156 25.9292 31.6841 26.0237 31.7828 26.1908C31.8798 26.3579 31.8798 27.1426 31.5455 28.0639Z" fill="#020F59"/>
</g>
</svg>
