<svg width="36" height="36" viewBox="0 0 36 36" fill="none" xmlns="http://www.w3.org/2000/svg">
<g clip-path="url(#clip0_465_55)">
<path d="M35.8602 9.81615L29.8603 2.61624C29.7463 2.48005 29.5777 2.40088 29.3995 2.40088H6.59978C6.42162 2.40088 6.25301 2.47949 6.13896 2.61624L0.139069 9.81615C-0.0103431 9.99495 -0.0427567 10.2439 0.056242 10.4545C0.155241 10.6651 0.367019 10.8001 0.59982 10.8001H35.3993C35.6321 10.8001 35.8439 10.6651 35.9429 10.4545C36.0414 10.2446 36.0096 9.99551 35.8602 9.81615ZM1.8809 9.60015L6.88061 3.60025H29.1181L34.1178 9.60015H1.8809Z" fill="#020F59"/>
<path d="M18.555 2.77034C18.4619 2.54597 18.243 2.40015 18.0006 2.40015H6.60074C6.38594 2.40015 6.18794 2.51475 6.08058 2.70136C5.97321 2.88797 5.97377 3.11655 6.0824 3.30253L10.2823 10.5024C10.3759 10.6626 10.5385 10.7712 10.7233 10.7952C10.7491 10.7982 10.7749 10.8 10.8001 10.8C10.9585 10.8 11.1115 10.7376 11.2249 10.6242L18.4248 3.4243C18.5964 3.25274 18.648 2.9947 18.555 2.77034ZM10.9261 9.22564L7.64473 3.60015H16.5516L10.9261 9.22564Z" fill="#020F59"/>
<path d="M35.9365 9.9338C35.8356 9.72919 35.6269 9.59961 35.3988 9.59961H0.599347C0.371327 9.59961 0.163134 9.72919 0.0617448 9.9338C-0.0390819 10.1384 -0.0156682 10.3826 0.122916 10.5638L17.5227 33.3635C17.6361 33.5123 17.8125 33.5999 17.9997 33.5999C18.1869 33.5999 18.3633 33.5123 18.4755 33.3635L35.8753 10.5638C36.0139 10.3826 36.0372 10.1384 35.9365 9.9338ZM17.9997 32.0111L1.8125 10.8002H34.1869L17.9997 32.0111Z" fill="#020F59"/>
<path d="M18.5718 32.8187L11.3719 10.019C11.2927 9.76941 11.0617 9.59961 10.7995 9.59961H0.599591C0.371571 9.59961 0.163378 9.72919 0.0619889 9.9338C-0.0388378 10.1384 -0.0154241 10.3826 0.12316 10.5638L17.5229 33.3635C17.6393 33.5165 17.8175 33.5999 17.9999 33.5999C18.0935 33.5999 18.1883 33.5783 18.2759 33.5315C18.5346 33.3977 18.6593 33.0965 18.5718 32.8187ZM1.81218 10.8002H10.3597L16.3932 29.9064L1.81218 10.8002Z" fill="#020F59"/>
<path d="M29.9196 2.70136C29.8128 2.51475 29.6142 2.40015 29.3994 2.40015H17.9995C17.7572 2.40015 17.5382 2.54597 17.4451 2.77034C17.3521 2.9947 17.4037 3.25274 17.5754 3.4243L24.7753 10.6242C24.888 10.7376 25.041 10.8 25.1994 10.8C25.2253 10.8 25.2511 10.7982 25.2769 10.7952C25.4611 10.7712 25.6243 10.6632 25.7179 10.5024L29.9178 3.30253C30.0258 3.11655 30.0264 2.88797 29.9196 2.70136ZM25.0735 9.22564L19.4479 3.60015H28.3547L25.0735 9.22564Z" fill="#020F59"/>
<path d="M35.9373 9.93502C35.8365 9.73041 35.6277 9.60083 35.3997 9.60083H25.1998C24.9376 9.60083 24.706 9.77063 24.6274 10.0202L17.4275 32.82C17.3399 33.0971 17.4647 33.3983 17.7233 33.5328C17.8109 33.5783 17.9057 33.6 17.9993 33.6C18.1811 33.6 18.3593 33.5166 18.4763 33.3648L35.876 10.5651C36.0147 10.3837 36.038 10.1396 35.9373 9.93502ZM19.6055 29.9063L25.639 10.8001H34.1865L19.6055 29.9063Z" fill="#020F59"/>
</g>
<defs>
<clipPath id="clip0_465_55">
<rect width="36" height="36" fill="white" transform="translate(-0.000488281)"/>
</clipPath>
</defs>
</svg>
