<svg width="46" height="45" viewBox="0 0 46 45" fill="none" xmlns="http://www.w3.org/2000/svg">
<g opacity="0.8">
<g clip-path="url(#clip0_465_35)">
<path d="M25.2656 22.5C25.2656 23.9866 24.0606 25.1917 22.574 25.1917C21.0874 25.1917 19.8823 23.9866 19.8823 22.5C19.8823 21.0134 21.0874 19.8083 22.574 19.8083C24.0606 19.8083 25.2656 21.0134 25.2656 22.5Z" fill="#020F59"/>
<path d="M22.5737 8.4375C14.8084 8.4375 8.51123 14.7347 8.51123 22.5C8.51123 30.2653 14.8084 36.5625 22.5737 36.5625C30.339 36.5625 36.6362 30.2653 36.6362 22.5C36.6362 14.7347 30.339 8.4375 22.5737 8.4375ZM30.6 25.8292C30.5609 26.6888 30.4242 27.2756 30.2247 27.7893C29.8052 28.874 28.9477 29.7314 27.863 30.1509C27.3496 30.3505 26.7625 30.487 25.9031 30.5262C25.042 30.5655 24.7669 30.575 22.5739 30.575C20.3808 30.575 20.1059 30.5655 19.2446 30.5262C18.3852 30.487 17.7981 30.3505 17.2846 30.1509C16.7456 29.9482 16.2577 29.6304 15.8543 29.2195C15.4436 28.8163 15.1258 28.3281 14.923 27.7893C14.7234 27.2758 14.5868 26.6888 14.5477 25.8294C14.508 24.9681 14.4988 24.693 14.4988 22.5C14.4988 20.307 14.508 20.0319 14.5475 19.1708C14.5865 18.3112 14.723 17.7244 14.9226 17.2107C15.1253 16.6719 15.4433 16.1837 15.8543 15.7805C16.2575 15.3696 16.7456 15.0518 17.2844 14.8491C17.7981 14.6495 18.385 14.513 19.2446 14.4738C20.1057 14.4345 20.3808 14.425 22.5737 14.425C24.7667 14.425 25.0418 14.4345 25.9029 14.474C26.7625 14.513 27.3493 14.6495 27.863 14.8488C28.4018 15.0516 28.89 15.3696 29.2934 15.7805C29.7041 16.1839 30.0221 16.6719 30.2247 17.2107C30.4244 17.7244 30.5609 18.3112 30.6002 19.1708C30.6395 20.0319 30.6487 20.307 30.6487 22.5C30.6487 24.693 30.6395 24.9681 30.6 25.8292Z" fill="#020F59"/>
<circle cx="26.4409" cy="17.9297" r="1.05469" fill="#020F59"/>
</g>
</g>
<defs>
<clipPath id="clip0_465_35">
<rect width="28.125" height="28.125" fill="white" transform="translate(8.51123 8.4375)"/>
</clipPath>
</defs>
</svg>
