<svg version="1.1" viewBox="0 0 70.4 14.725" xml:space="preserve" xmlns="http://www.w3.org/2000/svg">
  <g transform="matrix(1.3333 0 0 -1.3333 0 14.725)">
    <path d="m29.953 6.4757c-0.2073-0.4796-0.4116-0.96-0.614-1.4414-0.0272-0.0646-0.0649-0.1097-0.1307-0.1369-0.5017-0.2066-1.0029-0.4158-1.5041-0.6236-0.03-0.0125-0.0623-0.0201-0.0958-0.0301-0.0357 0.0108-0.0714 0.0199-0.1057 0.0335-0.4901 0.2015-0.9805 0.4045-1.4715 0.6043-0.0777 0.0318-0.1275 0.0771-0.1601 0.1562-0.1948 0.4714-0.3921 0.9414-0.5925 1.4103-0.0374 0.0867-0.0346 0.1618 0.0023 0.2469 0.2083 0.479 0.4133 0.9589 0.6157 1.4402 0.0295 0.0712 0.074 0.1115 0.1437 0.1392 0.4841 0.1965 0.9672 0.3938 1.4496 0.5942 0.0941 0.0391 0.178 0.0374 0.2722-6e-4 0.4765-0.1936 0.9535-0.3841 1.4326-0.5715 0.091-0.0351 0.1471-0.0884 0.1834-0.1805 0.1882-0.4737 0.3807-0.9459 0.5754-1.4171 0.0323-0.0782 0.0335-0.1448-5e-4 -0.2231zm17.889-0.8418c1.277 0 2.4789 1.3529 2.4789 2.5934 0 1.9899-1.5775 2.7411-2.4789 2.7411h-1.5775v-5.3337zm4.9581-5.3334v-0.0754c-0.8306 0-2.4038 0.2256-3.0047 2.6294-0.504 2.0157-1.332 2.7045-1.9534 2.7045l-1.5775 6e-4v-4.3571c0-0.7512 0.2254-0.9015 1.2022-0.9015v-0.0751h-3.6059v0.0751c0.9765 0 1.2018 0.1503 1.2018 0.9015v8.8645c0 0.7511-0.2253 0.9014-1.2018 0.9014v0.0751h3.9812c1.5778 0 3.6808-0.8263 3.6808-2.8162 0-1.4253-1.3462-2.4939-3.2091-2.6484 0.8858-0.188 2.2102-0.8952 2.6464-2.6493 0.2988-1.2025 0.9598-2.6291 1.84-2.6291zm-9.7265 10.742v-0.0751c-0.9766 0-1.2022-0.1502-1.2022-0.9014v-6.2351c0-2.4038-1.3501-3.831-3.831-3.831-2.4812 0-3.9816 1.4272-3.9816 3.831v6.2351c0 0.7512-0.2253 0.9014-1.2019 0.9014v0.0751h3.606v-0.0751c-0.9765 0-1.2022-0.1502-1.2022-0.9014v-6.2351c0-2.1784 0.8428-3.7559 2.7797-3.7559 2.0282 0 3.7559 1.0517 3.7559 3.7559v6.2351c0 0.7512-0.2251 0.9014-1.2016 0.9014v0.0751zm-15.944-10.742h-6.01v9.7659c0 0.7512 0.2257 0.9014 1.2022 0.9014v0.0751h-3.606v-0.0751c0.9766 0 1.2019-0.1502 1.2019-0.9014v-8.8645c0-0.7512-0.2253-0.9014-1.2019-0.9014v-0.0751h9.3904v1.2021h-0.0751c0-0.9768-0.1503-1.127-0.9015-1.127zm-9.4002 1.127v-1.2021h-6.9109v0.0754c0.9766 0 1.2019 0.1502 1.2019 0.9014v8.8642c0 0.7512-0.2253 0.9014-1.2019 0.9014v0.0751h6.6858v-1.2018h-0.0751c0 0.9014-0.1502 1.1267-0.9014 1.1267h-3.3055v-5.2585h2.4041c0.7511 0 0.9014 0.2253 0.9014 1.2021h0.0751v-2.4791h-0.0751c0 0.9768-0.1503 1.2019-0.9014 1.2019h-2.4041v-5.3334h3.5308c0.7512 0 0.9015 0.2253 0.9015 1.1267zm-7.4376 9.6154v-0.0751c-0.9765 0-1.2531-0.1496-1.5105-0.9014l-3.3724-9.841h-0.0751l-3.7588 9.841c-0.252 0.673-0.5984 0.9014-1.5749 0.9014v0.0751h3.606v-0.0751c-0.9766 0-1.0432-0.3424-0.8414-0.9014l3.081-8.3472 2.8604 8.3472c0.2141 0.6248 0.0834 0.9014-0.8931 0.9014v0.0751zm18.424-1.3648c-0.3455-0.1636-0.69-0.3286-1.0358-0.4927-0.0181-0.0091-0.038-0.0136-0.0567-0.0198-0.0289 0.0124-0.0561 0.0226-0.0816 0.0348-0.3232 0.1542-0.6449 0.3096-0.9689 0.4612-0.0748 0.0352-0.0935 0.0627-0.0261 0.129 0.3473 0.3387 0.692 0.6803 1.0347 1.0239 0.051 0.0504 0.0827 0.047 0.1306-0.0012 0.3371-0.3435 0.6764-0.6845 1.0157-1.0255 0.0439-0.0445 0.0578-0.0769-0.0119-0.1097zm0.5063 0.8376c-0.0805-0.1752-0.1542-0.3535-0.2311-0.5306-0.0226-0.0539-0.047-0.1044-0.1122-0.0386-0.303 0.3059-0.6072 0.612-0.9102 0.9184-0.0046 0.0046-0.0037 0.0148-0.0065 0.0306 0.0995 0.0199 0.1953-9e-3 0.2899-0.0215 0.3102-0.0411 0.6132-0.1131 0.9066-0.2231 0.0708-0.0266 0.0995-0.0567 0.0635-0.1352zm1.3042-0.7194h-0.6123c-0.2174 0-0.4348 0.0022-0.6523-6e-4 -0.085-0.0011-0.1128 0.0181-0.072 0.1055 0.0823 0.1788 0.1579 0.3611 0.2356 0.5414 0.0215 0.0516 0.0459 0.0842 0.11 0.0516 0.3606-0.182 0.6965-0.3989 0.991-0.6979zm0.1874-1.6881c0.0011-0.0822-0.0267-0.1003-0.1027-0.0737-0.3458 0.1211-0.6925 0.239-1.0391 0.3569-0.0513 0.017-0.0854 0.0468-0.1012 0.0978-0.1027 0.3257-0.205 0.6514-0.3099 0.9763-0.0249 0.0776 0 0.1065 0.0783 0.1065 0.4563-5e-4 0.9133-5e-4 1.3702 0.0017 0.0873 6e-4 0.0998-0.0487 0.0993-0.1199-0.0023-0.2256-0.0012-0.4521-0.0012-0.6786h0.0051c0-0.2219-0.0022-0.4444 0.0012-0.667zm-1.4786 0.4014c-0.4578 0.1834-0.8824 0.3529-1.3071 0.5227 0.0012 0.0114 0.0029 0.0227 4e-3 0.034 0.3005 0.1421 0.6007 0.2844 0.9009 0.4269 0.0408 0.019 0.081 0.0295 0.0992-0.0275 0.0983-0.3075 0.1953-0.6151 0.303-0.9561zm-1.9023 2.3644c-0.1151-0.1154-0.2305-0.231-0.3461-0.3464-0.1931-0.1905-0.3878-0.3796-0.578-0.5723-0.0618-0.0632-0.097-0.0757-0.1355 0.0204-0.0715 0.1792-0.1511 0.3552-0.2276 0.5321-0.0199 0.0473-0.042 0.0932 0.0294 0.1199 0.4026 0.1474 0.8144 0.2486 1.2578 0.2463zm-1.3014-1.0749c-0.4116 3e-4 -0.8229 0.0011-1.2345 2e-3 -0.0057 8e-4 -0.0116 0.0093-0.021 0.0161 0.0199 0.059 0.0774 0.0817 0.1194 0.1168 0.2503 0.2095 0.5249 0.3821 0.8149 0.5312 0.0698 0.0355 0.1072 0.0346 0.1398-0.0459 0.072-0.1794 0.1519-0.3552 0.2296-0.5323 0.0227-0.0516 0.0232-0.0885-0.0482-0.0879zm0.0723-0.3362c-0.1041-0.32-0.205-0.6412-0.3028-0.9635-0.0226-0.0751-0.0646-0.1159-0.1372-0.1409-0.3262-0.1116-0.6522-0.2253-0.9762-0.3432-0.0885-0.0318-0.1171-0.0142-0.1145 0.081 0.0042 0.226 8e-4 0.4519 8e-4 0.6778h-6e-4c0 0.2259 0.0029 0.4518-0.0017 0.6775-0.0011 0.091 0.0332 0.1238 0.1228 0.1227 0.4439-0.0028 0.8875-0.0034 1.3314-0.0017 0.0885 6e-4 0.1043-0.0275 0.078-0.1097zm1.2546-0.4141c-0.1454-0.0613-0.2611-0.1109-0.3779-0.1585-0.2769-0.1134-0.5544-0.2262-0.8325-0.3382-0.0281-0.0113-0.0621-0.0442-0.0893-0.0147-0.0244 0.0255-0.0011 0.0624 0.0079 0.0933 0.0828 0.2659 0.1676 0.532 0.2486 0.7988 0.021 0.0688 0.0488 0.0972 0.1231 0.0609 0.2945-0.1443 0.591-0.2843 0.9201-0.4416zm-2.9954-0.9383c0.0023-0.0811-0.0147-0.1173-0.1046-0.0748-0.1735 0.0822-0.3506 0.1593-0.5267 0.2378-0.0413 0.0187-0.0725 0.0385-0.0476 0.0918 0.1692 0.3668 0.379 0.7061 0.6466 1.008 0.0102-0.0034 0.021-0.0068 0.0312-0.0102 0-0.3024 5e-4 -0.6049 0-0.9073 0-0.1154-0.0023-0.2302 0.0011-0.3453zm0.5896-1.6146c-0.1516-0.2968-0.303-0.5936-0.4518-0.8915-0.0386-0.0774-0.0698-0.0941-0.1409-0.0244-0.309 0.307-0.6231 0.6095-0.9374 0.9114-0.0567 0.0544-0.0777 0.0901-0.0091 0.1561 0.3181 0.3042 0.6307 0.614 0.9456 0.9216 0.0199 0.0193 0.0426 0.0363 0.0601 0.051 0.0363-0.0074 0.046-0.0323 0.0567-0.0533 0.1613-0.3104 0.3206-0.6208 0.4825-0.9312 0.0261-0.0499 0.0181-0.0932-0.0057-0.1397zm-0.7344 1.2401c-0.2889-0.2848-0.5783-0.5708-0.8672-0.8566-0.0107 0.0054-0.0215 0.0111-0.0323 0.0162-0.0113 0.1428 0.0267 0.282 0.0442 0.4223 0.0301 0.2381 0.1049 0.4646 0.1798 0.6911 0.0235 0.0703 0.0598 0.089 0.1289 0.0567 0.1721-0.0794 0.345-0.155 0.5176-0.2321 0.0471-0.0216 0.0825-0.0448 0.029-0.0976zm1.4059 0.3127c-0.1663-0.3968-0.3373-0.7917-0.5215-1.2212-0.1625 0.3113-0.3062 0.5879-0.4507 0.8638-0.0284 0.055-0.0068 0.0822 0.0459 0.1009 0.2871 0.0995 0.5737 0.201 0.8609 0.3007 0.0397 0.0136 0.0978 0.0323 0.0654-0.0442zm-1.4065-2.7479c-0.1769-0.095-0.3529-0.1913-0.5301-0.2871-0.0431-0.0236-0.0862-0.038-0.11 0.0238-0.1539 0.3909-0.235 0.7974-0.2644 1.2138 0.0124 0.0062 0.0243 0.0119 0.0362 0.0181 0.2951-0.2894 0.5902-0.5794 0.8864-0.8682 0.0471-0.046 0.0346-0.0726-0.0181-0.1004zm0.1488-0.2577v-1.2798l-0.034-0.0085c-0.2475 0.2826-0.4445 0.5981-0.6063 0.9374-0.0272 0.0581-0.0063 0.0927 0.0448 0.1205 0.1698 0.0918 0.3395 0.1851 0.5091 0.2775 0.0535 0.0289 0.0864 0.0227 0.0864-0.0471zm1.6481-1.4632c-0.222 0.0028-0.4439 0.0011-0.6659 0.0011v-0.0011c-0.2177 0-0.4351 0.0028-0.6531-0.0011-0.089-0.0017-0.1253 0.0272-0.1233 0.1196 0.0105 0.4439-0.0065 0.8878 0.0179 1.3311 0.0056 0.1083 0.0408 0.1242 0.1355 0.0896 0.3087-0.1122 0.6191-0.2202 0.9303-0.3268 0.0635-0.0224 0.1049-0.0587 0.1253-0.1233 0.1035-0.3291 0.2066-0.6582 0.3115-0.9862 0.0255-0.0785 6e-4 -0.1035-0.0782-0.1029zm-0.4156 1.4808c-0.0363-0.0388-0.1122 0.0199-0.1689 0.0391-0.2254 0.0766-0.4479 0.1608-0.6738 0.2356-0.0907 0.03-0.1185 0.0646-0.0692 0.1576 0.1375 0.2605 0.2668 0.5255 0.4147 0.8209 0.1607-0.3827 0.3076-0.7293 0.4507-1.078 0.0238-0.0573 0.093-0.1253 0.0465-0.1752zm1.7498-0.9507c-0.3302-0.1588-0.6304-0.3019-0.9294-0.4476-0.0584-0.0287-0.0899-0.0193-0.1097 0.0442-0.0856 0.2792-0.1724 0.5579-0.26 0.8359-0.0232 0.0726-0.0034 0.0958 0.0686 0.0664 0.3997-0.1619 0.7991-0.324 1.2305-0.4989zm1.4108-0.7138c-0.0124-0.0156-0.0272-0.0349-0.0442-0.0519-0.3302-0.3376-0.661-0.674-0.9895-1.0142-0.057-0.059-0.0956-0.0544-0.1511 0.0014-0.349 0.3484-0.6999 0.6945-1.0523 1.0392-0.0538 0.0524-0.0527 0.0788 0.0176 0.1122 0.3269 0.1531 0.6526 0.3099 0.978 0.4683 0.0652 0.0318 0.1219 0.0284 0.1859-0.0034 0.3311-0.1652 0.663-0.3282 0.9939-0.4921 0.0243-0.0122 0.0566-0.0173 0.0617-0.0595zm-2.6957-0.1494c-0.076-0.1732-0.1463-0.3484-0.2186-0.5227-0.0221-0.0538-0.0442-0.0981-0.1167-0.0618-0.3513 0.1746-0.6784 0.3852-0.9644 0.656-0.0079 0.0073-0.0102 0.0204-0.0164 0.034 0.0521 0.0294 0.1063 0.0147 0.1573 0.0147 0.3574 2e-3 0.7157-8e-4 1.0732 2e-3 0.0969 3e-4 0.1281-0.0258 0.0856-0.1222zm1.2402-1.0222c-0.1072 0.0137-0.2532 0.0278-0.3966 0.0511-0.2761 0.0453-0.5434 0.1244-0.8059 0.2197-0.0683 0.0243-0.0904 0.0555-0.0604 0.1269 0.0777 0.1851 0.1517 0.372 0.2248 0.5593 0.0261 0.0669 0.0527 0.0868 0.1094 0.0261 0.3118-0.3314 0.6251-0.6619 0.9287-0.9831zm1.8541 0.2554c-0.3138-0.1145-0.635-0.1958-0.9672-0.2315-0.0754-0.0085-0.1502-0.0409-0.2537-0.0074 0.322 0.328 0.6302 0.6403 0.9366 0.9541 0.0459 0.0471 0.0737 0.0363 0.0986-0.0192 0.0834-0.1874 0.167-0.3754 0.2537-0.561 0.0374-0.08-5e-4 -0.1106-0.068-0.135zm1.3694 0.8632c-0.2928-0.2996-0.6287-0.5233-0.9955-0.703-0.0482-0.0232-0.0754-0.0082-0.097 0.0386-0.0867 0.1899-0.1751 0.3795-0.2627 0.5697-0.0244 0.0533-0.0289 0.0958 0.0521 0.0953 0.4343-0.0012 0.8691-6e-4 1.3031-6e-4zm0.2067 0.3379c0.0022-0.0978-0.0318-0.1301-0.1276-0.1279-0.2299 0.0046-0.4603 0.0017-0.6902 0.0017v0.0012c-0.226 0-0.4519 0.0022-0.6778-0.0017-0.0924-0.0012-0.1264 0.0187-0.0952 0.1196 0.0986 0.322 0.1919 0.6454 0.2837 0.9694 0.021 0.0755 0.0624 0.1154 0.1372 0.1392 0.3447 0.1083 0.688 0.2203 1.0307 0.3342 0.0842 0.0278 0.1182 0.017 0.1188-0.081 0.0034-0.4519 0.0102-0.9037 0.0204-1.3547zm-1.5251 0.9833c-0.0776-0.2701-0.1451-0.5054-0.2131-0.7407-0.0956-0.3268-0.0956-0.3268-0.3958-0.1768-0.231 0.115-0.4614 0.2304-0.7265 0.3631 0.4604 0.1913 0.8827 0.3662 1.3354 0.5544zm2.374 0.0323c-0.1649-0.3376-0.3682-0.6497-0.6389-0.934 0 0.089 0.0011 0.1783 0 0.2679-0.0045 0.337-0.0074 0.6744-0.0153 1.012-0.0017 0.0748 0.0249 0.0765 0.0788 0.0487 0.1823-0.0947 0.3643-0.1913 0.5477-0.2837 0.0569-0.0289 0.051-0.0635 0.0277-0.1109zm0.4088 1.5523c-0.0323-0.4102-0.1154-0.8104-0.2616-1.1962-0.0216-0.0562-0.0545-0.0666-0.1052-0.04-0.182 0.0955-0.3643 0.1905-0.5465 0.2852-0.042 0.0215-0.0562 0.0482-0.0182 0.0856 0.3002 0.2962 0.5998 0.5924 0.9003 0.8881 0.0108-0.0074 0.021-0.0145 0.0312-0.0227zm-0.1131 0.2367c-0.32-0.3064-0.6378-0.6163-0.9522-0.9295-0.068-0.0677-0.0941-0.0445-0.1318 0.0244-0.1655 0.3024-0.333 0.6038-0.5028 0.904-0.0386 0.068-0.0414 0.1267-0.0023 0.1953 0.1715 0.2996 0.3387 0.6018 0.5085 0.9017 0.0148 0.0263 0.0204 0.0652 0.07 0.0635 0.0187-0.0165 0.0409-0.0338 0.0607-0.0539 0.3155-0.3127 0.6287-0.6259 0.9459-0.9363 0.0632-0.0612 0.0734-0.1029 4e-3 -0.1692zm-1.2816-1.1395c-0.3347-0.1086-0.6689-0.2175-1.0026-0.3257-0.0198 0.0408-0.0017 0.0657 0.0091 0.0907 0.1559 0.3665 0.3121 0.7333 0.4689 1.0998 0.0121 0.0289 0.0158 0.0731 0.051 0.0782 0.0476 0.0074 0.0533-0.043 0.0703-0.0731 0.1417-0.2548 0.282-0.5099 0.4235-0.7656 0.0227-0.0408 0.0516-0.0811-0.0202-0.1043zm0.0326 2.383c-0.1612-0.2899-0.322-0.5799-0.4994-0.8985-0.1806 0.445-0.3492 0.8606-0.5182 1.2758 0.0091 0.0088 0.0182 0.0173 0.0267 0.0255 0.3189-0.106 0.6372-0.2126 0.9555-0.3183 0.0462-0.0153 0.0581-0.0436 0.0354-0.0845zm1.3627-0.8484c-0.0131-0.0107-0.0261-0.0224-0.0392-0.0331-0.108 0.1176-0.2123 0.2386-0.3237 0.352-0.178 0.1823-0.3597 0.3609-0.5422 0.5392-0.0508 0.0499-0.0621 0.0811 0.0155 0.1122 0.1795 0.0729 0.3566 0.15 0.5349 0.2254 0.0522 0.0227 0.0896 0.0244 0.1134-0.0431 0.1316-0.3742 0.2152-0.7571 0.2413-1.1526zm-0.4513 1.3859c-0.1687-0.0646-0.3342-0.1381-0.5006-0.2089-0.0624-0.0261-0.0998-0.025-0.1043 0.0584-0.021 0.4229-0.0102 0.8455-0.0017 1.2758 0.123-0.1082 0.2157-0.2372 0.3081-0.3659 0.1369-0.1913 0.2463-0.3986 0.3523-0.6075 0.036-0.0714 0.0324-0.119-0.0538-0.1519" fill="#414141"/>
  </g>
</svg>
