<?xml version="1.0" encoding="UTF-8"?>
<!DOCTYPE svg PUBLIC "-//W3C//DTD SVG 1.1//EN" "http://www.w3.org/Graphics/SVG/1.1/DTD/svg11.dtd">
<!-- Creator: CorelDRAW 2020 (64-Bit) -->
<svg xmlns="http://www.w3.org/2000/svg" xml:space="preserve" width="1043px" height="350px" version="1.1" shape-rendering="geometricPrecision" text-rendering="geometricPrecision" image-rendering="optimizeQuality" fill-rule="evenodd" clip-rule="evenodd"
viewBox="0 0 148.14 49.69"
 xmlns:xlink="http://www.w3.org/1999/xlink"
 xmlns:xodm="http://www.corel.com/coreldraw/odm/2003">
 <g id="Слой_x0020_1">
  <metadata id="CorelCorpID_0Corel-Layer"/>
  <g id="_1936397077904">
   <g>
    <path fill="white" fill-rule="nonzero" d="M84.03 12.82c-0.58,1.34 -1.15,2.69 -1.72,4.04 -0.07,0.18 -0.18,0.31 -0.36,0.38 -1.41,0.58 -2.82,1.17 -4.22,1.75 -0.09,0.04 -0.18,0.06 -0.27,0.09 -0.1,-0.03 -0.2,-0.06 -0.3,-0.1 -1.37,-0.56 -2.75,-1.13 -4.13,-1.69 -0.22,-0.09 -0.36,-0.22 -0.45,-0.44 -0.54,-1.32 -1.1,-2.64 -1.66,-3.96 -0.1,-0.24 -0.1,-0.45 0.01,-0.69 0.58,-1.34 1.16,-2.69 1.72,-4.04 0.09,-0.2 0.21,-0.31 0.41,-0.39 1.36,-0.55 2.71,-1.11 4.06,-1.67 0.27,-0.11 0.5,-0.1 0.77,0 1.33,0.55 2.67,1.08 4.02,1.61 0.25,0.1 0.41,0.25 0.51,0.5 0.53,1.33 1.07,2.66 1.62,3.98 0.09,0.22 0.09,0.41 -0.01,0.63z"/>
    <path fill="white" fill-rule="nonzero" d="M88.49 7.79c-0.47,0.18 -0.94,0.39 -1.4,0.59 -0.18,0.07 -0.28,0.07 -0.3,-0.17 -0.05,-1.18 -0.02,-2.37 0,-3.58 0.35,0.31 0.6,0.67 0.86,1.03 0.39,0.54 0.7,1.12 0.99,1.7 0.1,0.21 0.09,0.34 -0.15,0.43z"/>
    <path fill="white" fill-rule="nonzero" d="M89.76 11.68c-0.04,0.03 -0.08,0.06 -0.11,0.09 -0.3,-0.33 -0.6,-0.67 -0.91,-0.99 -0.5,-0.51 -1.01,-1.01 -1.52,-1.51 -0.14,-0.14 -0.18,-0.23 0.04,-0.31 0.51,-0.21 1,-0.42 1.5,-0.64 0.15,-0.06 0.25,-0.06 0.32,0.13 0.37,1.05 0.6,2.12 0.68,3.23z"/>
    <path fill="white" fill-rule="nonzero" d="M85.93 9.3c-0.45,0.81 -0.9,1.63 -1.4,2.52 -0.5,-1.25 -0.98,-2.41 -1.45,-3.58 0.03,-0.02 0.05,-0.05 0.07,-0.07 0.9,0.3 1.79,0.6 2.69,0.89 0.12,0.04 0.16,0.12 0.09,0.24z"/>
    <path fill="white" fill-rule="nonzero" d="M85.84 15.99c-0.94,0.3 -1.87,0.61 -2.81,0.91 -0.06,-0.12 0,-0.19 0.03,-0.26 0.43,-1.02 0.87,-2.05 1.31,-3.08 0.04,-0.08 0.05,-0.21 0.14,-0.22 0.14,-0.02 0.15,0.12 0.2,0.2 0.4,0.72 0.79,1.44 1.19,2.15 0.06,0.12 0.14,0.23 -0.06,0.3z"/>
    <path fill="white" fill-rule="nonzero" d="M89.44 12.79c-0.9,0.86 -1.79,1.73 -2.67,2.61 -0.19,0.19 -0.27,0.12 -0.37,-0.07 -0.47,-0.85 -0.94,-1.7 -1.41,-2.54 -0.11,-0.19 -0.12,-0.35 -0.01,-0.55 0.48,-0.84 0.95,-1.68 1.43,-2.53 0.04,-0.07 0.05,-0.18 0.19,-0.17 0.06,0.04 0.12,0.09 0.17,0.15 0.89,0.87 1.77,1.75 2.66,2.62 0.17,0.18 0.2,0.29 0.01,0.48z"/>
    <path fill="white" fill-rule="nonzero" d="M89.76 13.45c-0.09,1.15 -0.33,2.28 -0.74,3.36 -0.06,0.16 -0.15,0.18 -0.29,0.11 -0.51,-0.27 -1.02,-0.53 -1.54,-0.8 -0.11,-0.06 -0.15,-0.13 -0.05,-0.24 0.85,-0.83 1.69,-1.66 2.53,-2.49 0.03,0.02 0.06,0.04 0.09,0.06z"/>
    <path fill="white" fill-rule="nonzero" d="M88.61 17.81c-0.46,0.94 -1.03,1.82 -1.79,2.62 0,-0.25 0,-0.5 0,-0.75 -0.02,-0.95 -0.02,-1.9 -0.05,-2.84 0,-0.21 0.07,-0.22 0.23,-0.14 0.51,0.27 1.02,0.54 1.53,0.8 0.16,0.08 0.14,0.17 0.08,0.31z"/>
    <path fill="white" fill-rule="nonzero" d="M81.95 17.9c-0.22,0.76 -0.41,1.42 -0.6,2.08 -0.27,0.91 -0.27,0.91 -1.11,0.49 -0.65,-0.32 -1.29,-0.64 -2.04,-1.02 1.29,-0.53 2.48,-1.02 3.75,-1.55z"/>
    <path fill="white" fill-rule="nonzero" d="M86.23 20.66c0,0.27 -0.09,0.36 -0.36,0.36 -0.65,-0.02 -1.29,-0.01 -1.94,-0.01l0 0c-0.63,0 -1.26,-0.01 -1.9,0 -0.26,0.01 -0.35,-0.05 -0.27,-0.33 0.28,-0.91 0.54,-1.81 0.8,-2.72 0.06,-0.22 0.18,-0.33 0.39,-0.39 0.96,-0.31 1.93,-0.62 2.89,-0.94 0.23,-0.08 0.33,-0.05 0.33,0.23 0.01,1.26 0.03,2.53 0.06,3.8z"/>
    <path fill="white" fill-rule="nonzero" d="M85.65 21.6c-0.82,0.85 -1.77,1.47 -2.79,1.98 -0.14,0.06 -0.22,0.02 -0.28,-0.11 -0.24,-0.53 -0.49,-1.07 -0.73,-1.6 -0.07,-0.15 -0.09,-0.27 0.14,-0.27 1.22,0.01 2.44,0 3.66,0z"/>
    <path fill="white" fill-rule="nonzero" d="M81.81 24.03c-0.88,0.32 -1.79,0.55 -2.72,0.65 -0.21,0.02 -0.42,0.11 -0.71,0.02 0.9,-0.92 1.77,-1.8 2.63,-2.68 0.13,-0.13 0.21,-0.1 0.28,0.05 0.23,0.53 0.46,1.06 0.71,1.58 0.1,0.22 0,0.31 -0.19,0.38z"/>
    <path fill="white" fill-rule="nonzero" d="M76.6 24.74c-0.3,-0.04 -0.71,-0.07 -1.11,-0.14 -0.77,-0.13 -1.52,-0.35 -2.26,-0.62 -0.19,-0.06 -0.25,-0.15 -0.17,-0.35 0.22,-0.52 0.43,-1.05 0.63,-1.57 0.07,-0.19 0.15,-0.25 0.31,-0.07 0.87,0.93 1.75,1.85 2.6,2.75z"/>
    <path fill="white" fill-rule="nonzero" d="M73.12 21.88c-0.21,0.48 -0.41,0.97 -0.61,1.46 -0.06,0.15 -0.12,0.28 -0.33,0.18 -0.98,-0.5 -1.9,-1.09 -2.7,-1.85 -0.02,-0.02 -0.03,-0.05 -0.05,-0.09 0.15,-0.08 0.3,-0.04 0.44,-0.04 1.01,-0.01 2.01,0 3.01,-0.01 0.28,0 0.36,0.07 0.24,0.35z"/>
    <path fill="white" fill-rule="nonzero" d="M80.69 21.46c-0.04,0.04 -0.08,0.09 -0.13,0.14 -0.92,0.95 -1.85,1.89 -2.77,2.85 -0.16,0.16 -0.27,0.15 -0.43,-0.01 -0.98,-0.97 -1.96,-1.95 -2.95,-2.91 -0.15,-0.15 -0.15,-0.22 0.05,-0.32 0.92,-0.43 1.83,-0.87 2.74,-1.31 0.19,-0.09 0.35,-0.08 0.53,0.01 0.92,0.46 1.86,0.92 2.78,1.38 0.07,0.03 0.16,0.05 0.18,0.17z"/>
    <path fill="white" fill-rule="nonzero" d="M76.73 19.45c-0.93,0.45 -1.77,0.85 -2.61,1.26 -0.16,0.08 -0.25,0.05 -0.31,-0.12 -0.24,-0.79 -0.48,-1.57 -0.73,-2.35 -0.06,-0.2 0,-0.27 0.2,-0.19 1.12,0.46 2.24,0.91 3.45,1.4z"/>
    <path fill="white" fill-rule="nonzero" d="M71.82 16.79c-0.1,0.1 -0.31,-0.06 -0.47,-0.11 -0.64,-0.22 -1.26,-0.45 -1.89,-0.66 -0.26,-0.09 -0.34,-0.19 -0.2,-0.45 0.39,-0.73 0.75,-1.47 1.17,-2.3 0.45,1.07 0.86,2.05 1.26,3.02 0.07,0.17 0.26,0.36 0.13,0.5z"/>
    <path fill="white" fill-rule="nonzero" d="M72.99 20.94c-0.63,-0.01 -1.25,0 -1.87,0l0 0c-0.61,0 -1.22,-0.01 -1.83,0 -0.25,0.01 -0.36,-0.07 -0.35,-0.33 0.03,-1.25 -0.02,-2.49 0.05,-3.74 0.02,-0.3 0.11,-0.34 0.38,-0.25 0.87,0.32 1.74,0.62 2.61,0.92 0.18,0.06 0.29,0.16 0.35,0.35 0.29,0.92 0.58,1.84 0.88,2.76 0.07,0.22 0,0.29 -0.22,0.29z"/>
    <path fill="white" fill-rule="nonzero" d="M68.36 16.84l0 3.59 -0.09 0.02c-0.7,-0.79 -1.25,-1.68 -1.7,-2.63 -0.08,-0.16 -0.02,-0.26 0.12,-0.34 0.48,-0.26 0.95,-0.52 1.43,-0.78 0.15,-0.08 0.24,-0.06 0.24,0.14z"/>
    <path fill="white" fill-rule="nonzero" d="M67.94 16.11c-0.49,0.27 -0.99,0.54 -1.48,0.81 -0.12,0.06 -0.24,0.11 -0.31,-0.07 -0.43,-1.1 -0.66,-2.24 -0.74,-3.4 0.03,-0.02 0.07,-0.04 0.1,-0.06 0.83,0.82 1.65,1.63 2.49,2.44 0.13,0.13 0.09,0.2 -0.06,0.28z"/>
    <path fill="white" fill-rule="nonzero" d="M71.89 8.4c-0.47,1.12 -0.95,2.22 -1.46,3.43 -0.46,-0.87 -0.86,-1.65 -1.27,-2.42 -0.08,-0.16 -0.02,-0.23 0.13,-0.29 0.81,-0.28 1.61,-0.56 2.42,-0.84 0.11,-0.04 0.27,-0.09 0.18,0.12z"/>
    <path fill="white" fill-rule="nonzero" d="M67.95 9.28c-0.81,0.8 -1.63,1.6 -2.44,2.4 -0.03,-0.01 -0.06,-0.03 -0.09,-0.04 -0.03,-0.4 0.08,-0.79 0.13,-1.19 0.08,-0.66 0.29,-1.3 0.5,-1.94 0.07,-0.19 0.17,-0.25 0.36,-0.15 0.49,0.22 0.97,0.43 1.46,0.65 0.13,0.06 0.23,0.12 0.08,0.27z"/>
    <path fill="white" fill-rule="nonzero" d="M70.01 12.76c-0.43,0.83 -0.85,1.66 -1.27,2.5 -0.11,0.22 -0.2,0.27 -0.4,0.07 -0.86,-0.86 -1.74,-1.71 -2.63,-2.56 -0.16,-0.15 -0.21,-0.25 -0.02,-0.44 0.89,-0.85 1.77,-1.72 2.65,-2.58 0.06,-0.06 0.12,-0.1 0.17,-0.14 0.1,0.02 0.13,0.09 0.16,0.14 0.45,0.88 0.9,1.75 1.35,2.62 0.08,0.14 0.05,0.26 -0.01,0.39z"/>
    <path fill="white" fill-rule="nonzero" d="M68.35 8.23c0.01,0.23 -0.04,0.33 -0.29,0.21 -0.49,-0.23 -0.98,-0.45 -1.48,-0.67 -0.11,-0.05 -0.2,-0.11 -0.13,-0.26 0.47,-1.02 1.06,-1.98 1.81,-2.82 0.03,0.01 0.06,0.02 0.09,0.03 0,0.84 0,1.69 0,2.54 0,0.32 -0.01,0.65 0,0.97z"/>
    <path fill="white" fill-rule="nonzero" d="M76.76 5.6c-0.41,0.17 -0.74,0.31 -1.06,0.44 -0.78,0.32 -1.56,0.64 -2.34,0.95 -0.08,0.03 -0.17,0.12 -0.25,0.04 -0.07,-0.07 0,-0.17 0.02,-0.26 0.23,-0.75 0.47,-1.49 0.7,-2.24 0.06,-0.19 0.14,-0.27 0.35,-0.17 0.82,0.4 1.65,0.8 2.58,1.24z"/>
    <path fill="white" fill-rule="nonzero" d="M73.24 4.43c-0.3,0.9 -0.58,1.8 -0.85,2.71 -0.07,0.21 -0.18,0.32 -0.39,0.39 -0.91,0.32 -1.83,0.64 -2.74,0.97 -0.25,0.09 -0.32,0.04 -0.32,-0.23 0.01,-0.63 0,-1.27 0,-1.9l0 0c0,-0.64 0.01,-1.27 0,-1.9 0,-0.26 0.09,-0.35 0.34,-0.35 1.25,0.01 2.49,0.01 3.74,0.01 0.25,0 0.29,0.07 0.22,0.3z"/>
    <path fill="white" fill-rule="nonzero" d="M73.03 3.49c-1.15,0 -2.3,0 -3.46,0 -0.02,-0.01 -0.03,-0.03 -0.06,-0.05 0.06,-0.16 0.22,-0.23 0.34,-0.33 0.7,-0.58 1.47,-1.07 2.28,-1.49 0.2,-0.1 0.3,-0.09 0.39,0.13 0.21,0.51 0.43,1 0.65,1.5 0.06,0.14 0.06,0.24 -0.14,0.24z"/>
    <path fill="white" fill-rule="nonzero" d="M76.69 0.48c-0.33,0.32 -0.65,0.64 -0.98,0.97 -0.54,0.53 -1.08,1.06 -1.62,1.6 -0.17,0.18 -0.27,0.22 -0.38,-0.05 -0.2,-0.51 -0.42,-1 -0.64,-1.5 -0.05,-0.13 -0.11,-0.26 0.09,-0.33 1.13,-0.42 2.28,-0.7 3.53,-0.69z"/>
    <path fill="white" fill-rule="nonzero" d="M82.02 7.11c-1.28,-0.51 -2.47,-0.99 -3.66,-1.47 0,-0.03 0,-0.06 0.01,-0.09 0.84,-0.4 1.68,-0.8 2.52,-1.2 0.12,-0.05 0.23,-0.08 0.28,0.08 0.28,0.86 0.55,1.72 0.85,2.68z"/>
    <path fill="white" fill-rule="nonzero" d="M86.17 8.24c0,0.23 -0.07,0.28 -0.29,0.2 -0.97,-0.34 -1.94,-0.67 -2.91,-1 -0.15,-0.05 -0.24,-0.13 -0.29,-0.27 -0.28,-0.92 -0.57,-1.83 -0.87,-2.74 -0.07,-0.22 0,-0.3 0.22,-0.3 1.28,0 2.57,0 3.85,-0.01 0.24,0 0.28,0.14 0.28,0.34 -0.01,0.63 -0.01,1.27 -0.01,1.9l0.02 0c0,0.63 -0.01,1.25 0,1.88z"/>
    <path fill="white" fill-rule="nonzero" d="M85.64 3.5l-1.71 0c-0.61,0 -1.22,-0.01 -1.83,0 -0.24,0 -0.32,-0.05 -0.2,-0.29 0.23,-0.51 0.44,-1.02 0.66,-1.52 0.06,-0.15 0.12,-0.24 0.3,-0.15 1.02,0.51 1.96,1.12 2.78,1.96z"/>
    <path fill="white" fill-rule="nonzero" d="M81.99 1.48c-0.23,0.49 -0.44,0.99 -0.65,1.49 -0.07,0.15 -0.13,0.29 -0.32,0.11 -0.85,-0.86 -1.7,-1.72 -2.55,-2.58 -0.01,-0.01 -0.01,-0.04 -0.02,-0.08 0.28,-0.06 0.55,0.02 0.81,0.06 0.87,0.11 1.72,0.31 2.55,0.62 0.2,0.08 0.28,0.16 0.18,0.38z"/>
    <path fill="white" fill-rule="nonzero" d="M80.57 3.83c-0.97,0.46 -1.94,0.92 -2.91,1.38 -0.05,0.03 -0.11,0.04 -0.16,0.06 -0.08,-0.04 -0.16,-0.06 -0.23,-0.1 -0.9,-0.43 -1.81,-0.87 -2.72,-1.29 -0.21,-0.1 -0.26,-0.18 -0.07,-0.36 0.97,-0.95 1.94,-1.91 2.9,-2.88 0.15,-0.14 0.23,-0.13 0.37,0.01 0.94,0.96 1.9,1.92 2.85,2.87 0.12,0.13 0.16,0.22 -0.03,0.31z"/>
    <path fill="white" fill-rule="nonzero" d="M28.87 0l0 0.21c-2.74,0 -3.51,0.42 -4.23,2.53l-9.47 27.61 -0.21 0 -10.54 -27.61c-0.71,-1.89 -1.68,-2.53 -4.42,-2.53l0 -0.21 10.12 0 0 0.21c-2.74,0 -2.93,0.96 -2.36,2.53l8.64 23.42 8.03 -23.42c0.6,-1.75 0.23,-2.53 -2.51,-2.53l0 -0.21 6.95 0z"/>
    <path fill="white" fill-rule="nonzero" d="M49.74 26.98l0 3.37 -19.39 0 0 -0.21c2.74,0 3.37,-0.42 3.37,-2.53l0 -24.87c0,-2.11 -0.63,-2.53 -3.37,-2.53l0 -0.21 18.76 0 0 3.37 -0.21 0c0,-2.52 -0.42,-3.16 -2.53,-3.16l-9.27 0 0 14.76 6.74 0c2.11,0 2.53,-0.64 2.53,-3.38l0.21 0 0 6.96 -0.21 0c0,-2.74 -0.42,-3.37 -2.53,-3.37l-6.74 0 0 14.96 9.9 0c2.11,0 2.53,-0.63 2.53,-3.16l0.21 0z"/>
    <path fill="white" fill-rule="nonzero" d="M76.11 30.14l-16.86 0 0 -27.4c0,-2.11 0.64,-2.53 3.37,-2.53l0 -0.21 -10.11 0 0 0.21c2.74,0 3.37,0.42 3.37,2.53l0 24.87c0,2.11 -0.63,2.53 -3.37,2.53l0 0.21 26.34 0 0 -3.37 -0.21 0c0,2.74 -0.42,3.16 -2.53,3.16z"/>
    <path fill="white" fill-rule="nonzero" d="M120.85 0l0 0.21c-2.74,0 -3.38,0.42 -3.38,2.53l0 17.5c0,6.74 -3.78,10.74 -10.74,10.74 -6.97,0 -11.17,-4 -11.17,-10.74l0 -17.5c0,-2.11 -0.64,-2.53 -3.38,-2.53l0 -0.21 10.12 0 0 0.21c-2.74,0 -3.37,0.42 -3.37,2.53l0 17.5c0,6.11 2.36,10.53 7.8,10.53 5.69,0 10.53,-2.95 10.53,-10.53l0 -17.5c0,-2.11 -0.63,-2.53 -3.37,-2.53l0 -0.21 6.96 0z"/>
    <path fill="white" fill-rule="nonzero" d="M134.22 15.18c3.59,0 6.96,-3.8 6.96,-7.28 0,-5.58 -4.43,-7.69 -6.96,-7.69l-4.42 0 0 14.96 4.42 0.01zm13.92 14.96l0 0.21c-2.34,0 -6.75,-0.63 -8.44,-7.37 -1.41,-5.66 -3.73,-7.59 -5.48,-7.59l-4.42 0 0 12.22c0,2.11 0.63,2.53 3.37,2.53l0 0.21 -10.12 0 0 -0.21c2.74,0 3.38,-0.42 3.38,-2.53l0 -24.87c0,-2.11 -0.64,-2.53 -3.38,-2.53l0 -0.21 11.17 0c4.43,0 10.33,2.32 10.33,7.9 0,4 -3.78,7 -9,7.43 2.48,0.53 6.2,2.51 7.42,7.43 0.84,3.38 2.7,7.38 5.17,7.38z"/>
   </g>
   <g>
    <path fill="white" fill-rule="nonzero" d="M16 40.98c0,0.05 -0.07,0.12 -0.21,0.22 -1.13,0.76 -1.9,1.14 -2.29,1.14 -0.26,0 -0.39,-0.14 -0.39,-0.44 0,-0.16 0.03,-0.33 0.1,-0.5 0.09,-0.23 0.13,-0.35 0.13,-0.36 0,-0.03 -0.01,-0.05 -0.04,-0.05 -0.01,0 -0.03,0.01 -0.07,0.03 -0.2,0.2 -0.49,0.44 -0.88,0.73 -0.5,0.37 -0.84,0.55 -1.03,0.55 -0.23,0 -0.34,-0.11 -0.34,-0.33 0,-0.13 0.17,-0.49 0.49,-1.07 0.32,-0.58 0.48,-0.92 0.48,-1.02 0,-0.1 -0.08,-0.15 -0.25,-0.15 -0.03,0 -0.05,-0.05 -0.05,-0.16 0.08,-0.03 0.17,-0.04 0.26,-0.04 0.32,0 0.48,0.09 0.48,0.27 0,0.2 -0.14,0.55 -0.43,1.02 -0.28,0.48 -0.42,0.78 -0.42,0.9 0,0.07 0.03,0.11 0.09,0.11 0.15,0 0.51,-0.24 1.09,-0.73 0.57,-0.49 1.02,-0.93 1.33,-1.33 0.14,-0.13 0.24,-0.2 0.3,-0.2 0.12,0 0.18,0.06 0.18,0.18 0,0.06 -0.03,0.14 -0.09,0.25 -0.56,0.82 -0.83,1.36 -0.83,1.61 0,0.23 0.1,0.35 0.31,0.35 0.33,0 0.91,-0.29 1.76,-0.87 0.04,-0.04 0.11,-0.08 0.19,-0.13 0.03,-0.03 0.06,-0.04 0.08,-0.04 0.03,0 0.05,0.02 0.05,0.06zm1.22 0.76c-0.02,0.03 -0.06,0.08 -0.11,0.14 -0.04,0.06 -0.09,0.12 -0.13,0.18 -0.04,0.06 -0.08,0.11 -0.11,0.15 -0.04,0.04 -0.07,0.06 -0.09,0.06 -0.12,0 -0.18,-0.06 -0.18,-0.19 0,-0.05 0.04,-0.14 0.1,-0.28 0.11,-0.15 0.22,-0.3 0.33,-0.45 0.11,-0.15 0.22,-0.3 0.32,-0.46 0.32,-0.46 0.48,-0.78 0.48,-0.98 0,-0.08 -0.03,-0.12 -0.08,-0.12 -0.04,0 -0.09,0.02 -0.17,0.05 -0.24,0.18 -0.52,0.39 -0.85,0.64 -0.32,0.25 -0.71,0.53 -1.15,0.85l-0.09 0c-0.07,0 -0.1,0 -0.1,-0.02 0,-0.02 0.05,-0.07 0.15,-0.14 0.32,-0.26 0.66,-0.52 1.02,-0.79 0.35,-0.28 0.72,-0.56 1.12,-0.85 0.1,-0.1 0.24,-0.14 0.43,-0.14 0.18,0 0.27,0.08 0.27,0.25 0,0.18 -0.13,0.48 -0.4,0.88 -0.01,0.04 -0.04,0.07 -0.06,0.1 -0.03,0.04 -0.06,0.07 -0.07,0.11 0.07,0 0.16,0 0.26,0 0.1,0 0.21,-0.01 0.34,-0.02 0.22,-0.01 0.41,-0.01 0.57,0 0.04,-0.06 0.07,-0.13 0.11,-0.19 0.04,-0.06 0.08,-0.13 0.12,-0.21 0.11,-0.15 0.2,-0.3 0.3,-0.43 0.1,-0.12 0.2,-0.24 0.3,-0.34 0.06,-0.08 0.16,-0.12 0.3,-0.12 0.08,0.01 0.11,0.04 0.11,0.06 0,0 -0.16,0.27 -0.48,0.81 -0.32,0.53 -0.48,0.92 -0.48,1.16 0,0.28 0.12,0.42 0.37,0.42 0.31,0 0.77,-0.27 1.37,-0.81 0.02,-0.03 0.05,-0.04 0.08,-0.04 0.03,0 0.04,0.02 0.04,0.05 0,0.06 -0.09,0.15 -0.28,0.28 -0.29,0.26 -0.56,0.45 -0.8,0.59 -0.24,0.13 -0.46,0.2 -0.67,0.2 -0.42,0 -0.63,-0.18 -0.63,-0.53 0,-0.23 0.06,-0.46 0.16,-0.7 -0.11,-0.01 -0.24,-0.02 -0.4,-0.02 -0.15,0 -0.32,0.01 -0.5,0.03 -0.13,0.01 -0.21,0.01 -0.25,0.01 -0.04,0 -0.06,0 -0.08,0 -0.13,0.19 -0.24,0.36 -0.34,0.53 -0.1,0.16 -0.15,0.26 -0.15,0.28zm12.38 -0.76c0,0.05 -0.07,0.12 -0.21,0.22 -0.65,0.44 -1.02,0.68 -1.09,0.73 -0.42,0.25 -0.76,0.37 -1.04,0.37 -0.15,0 -0.29,-0.05 -0.39,-0.16 -0.11,-0.11 -0.16,-0.25 -0.16,-0.4 0,-0.47 0.29,-1.12 0.88,-1.98 0.05,-0.06 0.07,-0.11 0.07,-0.12 0,-0.01 0,-0.02 -0.01,-0.02 -0.04,0 -0.1,0.03 -0.19,0.1 -0.52,0.39 -1.09,0.81 -1.72,1.28 -0.26,0.23 -0.65,0.56 -1.17,0.97 -0.07,0.06 -0.17,0.11 -0.3,0.15 -0.07,0 -0.1,-0.04 -0.1,-0.14 0,-0.18 0.15,-0.48 0.46,-0.89 0.31,-0.41 0.46,-0.69 0.46,-0.86 0,-0.16 -0.07,-0.23 -0.22,-0.23 -0.22,0 -0.66,0.29 -1.32,0.89 -0.45,0.41 -0.85,0.8 -1.19,1.18 -0.13,0.13 -0.23,0.2 -0.3,0.2 -0.12,0 -0.18,-0.06 -0.18,-0.19 0,-0.04 0.03,-0.13 0.09,-0.28 0.23,-0.3 0.44,-0.6 0.65,-0.91 0.33,-0.46 0.49,-0.78 0.49,-0.98 0,-0.08 -0.03,-0.12 -0.09,-0.12 -0.02,0 -0.08,0.02 -0.16,0.05 -0.47,0.35 -1.14,0.85 -2,1.49l-0.1 0c-0.07,0 -0.1,0 -0.1,-0.02 0,-0.03 0.05,-0.08 0.15,-0.14 0.65,-0.51 1.36,-1.05 2.14,-1.64 0.12,-0.1 0.26,-0.14 0.43,-0.14 0.19,0 0.28,0.08 0.28,0.25 0,0.03 -0.01,0.09 -0.03,0.16 -0.18,0.32 -0.42,0.73 -0.7,1.23 -0.04,0.07 -0.06,0.11 -0.06,0.13 0,0 0.01,0.01 0.03,0.01l0.04 -0.01c0.34,-0.3 0.68,-0.59 1.02,-0.89 0.53,-0.44 0.9,-0.66 1.13,-0.66 0.31,0 0.46,0.1 0.46,0.29 0,0.16 -0.09,0.42 -0.27,0.75 -0.18,0.34 -0.27,0.52 -0.27,0.55 0,0.02 0.01,0.04 0.03,0.04 0.04,0 0.1,-0.03 0.19,-0.1l2.87 -2.17c0.1,-0.07 0.19,-0.11 0.29,-0.11 0.07,0 0.11,0.01 0.14,0.04 0.03,0.02 0.04,0.06 0.04,0.12 0,0.06 -0.01,0.11 -0.05,0.16 -0.26,0.37 -0.52,0.74 -0.79,1.12 -0.31,0.48 -0.47,0.89 -0.47,1.24 0,0.22 0.12,0.33 0.36,0.32 0.29,-0.01 0.61,-0.12 0.97,-0.35 0.29,-0.18 0.59,-0.36 0.88,-0.55 0.03,-0.03 0.06,-0.04 0.08,-0.04 0.03,0 0.05,0.02 0.05,0.06zm3.24 0c0,0.06 -0.19,0.21 -0.57,0.45 -0.93,0.59 -1.59,0.88 -2,0.88 -0.6,0 -0.9,-0.34 -0.9,-1.04 0,-0.52 0.26,-1.04 0.76,-1.56 0.5,-0.52 0.98,-0.78 1.43,-0.78 0.13,0 0.2,0.07 0.2,0.2 0,0.31 -0.27,0.75 -0.81,1.32 -0.43,0.45 -0.79,0.76 -1.06,0.93 0.02,0.4 0.22,0.6 0.58,0.6 0.34,0 0.91,-0.23 1.71,-0.69 0.06,-0.03 0.24,-0.14 0.54,-0.33 0.02,-0.03 0.05,-0.04 0.08,-0.04 0.03,0 0.04,0.02 0.04,0.06zm-1.5 -1.59c0,-0.11 -0.04,-0.17 -0.1,-0.17 -0.23,0 -0.51,0.23 -0.84,0.69 -0.33,0.46 -0.51,0.88 -0.51,1.25 0.17,-0.06 0.45,-0.3 0.82,-0.72 0.42,-0.46 0.63,-0.81 0.63,-1.05zm5.52 1.59c0,0.12 -0.33,0.36 -1,0.71 -0.66,0.35 -1.46,0.53 -2.41,0.53 -0.55,0 -0.84,-0.06 -0.89,-0.17 0,-0.06 0.05,-0.09 0.16,-0.09 0.13,0.02 0.22,0.04 0.26,0.04 0.47,0 0.97,-0.24 1.5,-0.72 0.51,-0.45 0.76,-0.84 0.76,-1.16 0,-0.14 -0.08,-0.21 -0.26,-0.21 -0.86,0 -1.81,0.82 -2.83,2.46 -0.08,0.13 -0.59,1.11 -1.51,2.93 -0.93,1.83 -1.42,2.81 -1.47,2.94 -0.07,0.15 -0.15,0.23 -0.25,0.23 -0.04,0 -0.07,0 -0.08,-0.01 -0.06,-0.02 -0.09,-0.07 -0.09,-0.17 0,-0.33 2.07,-4.19 6.22,-11.59 0.07,-0.13 0.14,-0.2 0.2,-0.2 0.01,0 0.03,0.01 0.06,0.03 0.03,0.02 0.04,0.06 0.04,0.11 0,0.1 -0.03,0.18 -0.08,0.24 -0.01,0.02 -0.39,0.7 -1.13,2.04 -0.71,1.29 -1.07,1.97 -1.07,2.06 0,0 0.01,0.01 0.02,0.02 0.01,-0.02 0.04,-0.05 0.09,-0.11 0.22,-0.26 0.53,-0.54 0.91,-0.81 0.52,-0.35 0.97,-0.53 1.36,-0.53 0.28,0 0.42,0.11 0.42,0.33 0,0.68 -0.53,1.34 -1.61,1.98 0.82,0 1.67,-0.3 2.55,-0.9 0.03,-0.03 0.06,-0.04 0.09,-0.04 0.02,0 0.04,0.02 0.04,0.06zm1.27 0.76c-0.03,0.03 -0.07,0.08 -0.11,0.14 -0.05,0.06 -0.09,0.12 -0.13,0.18 -0.04,0.06 -0.08,0.11 -0.12,0.15 -0.04,0.04 -0.07,0.06 -0.08,0.06 -0.12,0 -0.18,-0.06 -0.18,-0.19 0,-0.05 0.03,-0.14 0.09,-0.28 0.11,-0.15 0.22,-0.3 0.34,-0.45 0.11,-0.15 0.21,-0.3 0.31,-0.46 0.32,-0.46 0.49,-0.78 0.49,-0.98 0,-0.08 -0.03,-0.12 -0.09,-0.12 -0.03,0 -0.09,0.02 -0.16,0.05 -0.24,0.18 -0.53,0.39 -0.85,0.64 -0.33,0.25 -0.71,0.53 -1.15,0.85l-0.1 0c-0.07,0 -0.1,0 -0.1,-0.02 0,-0.02 0.05,-0.07 0.15,-0.14 0.33,-0.26 0.66,-0.52 1.02,-0.79 0.35,-0.28 0.73,-0.56 1.12,-0.85 0.11,-0.1 0.25,-0.14 0.43,-0.14 0.19,0 0.28,0.08 0.28,0.25 0,0.18 -0.14,0.48 -0.4,0.88 -0.02,0.04 -0.04,0.07 -0.07,0.1 -0.03,0.04 -0.05,0.07 -0.07,0.11 0.07,0 0.16,0 0.26,0 0.1,0 0.22,-0.01 0.35,-0.02 0.22,-0.01 0.41,-0.01 0.56,0 0.04,-0.06 0.08,-0.13 0.11,-0.19 0.04,-0.06 0.08,-0.13 0.13,-0.21 0.1,-0.15 0.2,-0.3 0.29,-0.43 0.1,-0.12 0.2,-0.24 0.3,-0.34 0.07,-0.08 0.17,-0.12 0.31,-0.12 0.07,0.01 0.11,0.04 0.11,0.06 0,0 -0.17,0.27 -0.49,0.81 -0.32,0.53 -0.48,0.92 -0.48,1.16 0,0.28 0.12,0.42 0.37,0.42 0.32,0 0.77,-0.27 1.37,-0.81 0.03,-0.03 0.05,-0.04 0.08,-0.04 0.03,0 0.04,0.02 0.04,0.05 0,0.06 -0.09,0.15 -0.27,0.28 -0.3,0.26 -0.56,0.45 -0.8,0.59 -0.24,0.13 -0.47,0.2 -0.68,0.2 -0.41,0 -0.62,-0.18 -0.62,-0.53 0,-0.23 0.05,-0.46 0.15,-0.7 -0.11,-0.01 -0.24,-0.02 -0.39,-0.02 -0.16,0 -0.32,0.01 -0.51,0.03 -0.13,0.01 -0.21,0.01 -0.25,0.01 -0.03,0 -0.06,0 -0.08,0 -0.13,0.19 -0.24,0.36 -0.34,0.53 -0.09,0.16 -0.14,0.26 -0.14,0.28zm7.27 -0.76c0,0.06 -0.18,0.21 -0.56,0.45 -0.93,0.59 -1.6,0.88 -2,0.88 -0.6,0 -0.9,-0.34 -0.9,-1.04 0,-0.52 0.25,-1.04 0.75,-1.56 0.5,-0.52 0.98,-0.78 1.43,-0.78 0.14,0 0.21,0.07 0.21,0.2 0,0.31 -0.27,0.75 -0.82,1.32 -0.43,0.45 -0.78,0.76 -1.06,0.93 0.03,0.4 0.22,0.6 0.58,0.6 0.34,0 0.91,-0.23 1.71,-0.69 0.07,-0.03 0.25,-0.14 0.54,-0.33 0.03,-0.03 0.06,-0.04 0.08,-0.04 0.03,0 0.04,0.02 0.04,0.06zm-1.5 -1.59c0,-0.11 -0.03,-0.17 -0.1,-0.17 -0.23,0 -0.51,0.23 -0.84,0.69 -0.33,0.46 -0.5,0.88 -0.51,1.25 0.17,-0.06 0.45,-0.3 0.83,-0.72 0.41,-0.46 0.62,-0.81 0.62,-1.05zm9.83 1.59c0,0.05 -0.07,0.12 -0.21,0.22 -0.65,0.44 -1.01,0.68 -1.09,0.73 -0.41,0.25 -0.76,0.37 -1.03,0.37 -0.16,0 -0.29,-0.05 -0.4,-0.16 -0.1,-0.11 -0.16,-0.25 -0.16,-0.4 0,-0.47 0.3,-1.12 0.89,-1.98 0.04,-0.06 0.07,-0.11 0.07,-0.12 0,-0.01 -0.01,-0.02 -0.02,-0.02 -0.03,0 -0.1,0.03 -0.19,0.1 -0.52,0.39 -1.09,0.81 -1.71,1.28 -0.27,0.23 -0.66,0.56 -1.18,0.97 -0.07,0.06 -0.17,0.11 -0.3,0.15 -0.06,0 -0.1,-0.04 -0.1,-0.14 0,-0.18 0.16,-0.48 0.47,-0.89 0.3,-0.41 0.46,-0.69 0.46,-0.86 0,-0.16 -0.07,-0.23 -0.22,-0.23 -0.22,0 -0.66,0.29 -1.33,0.89 -0.45,0.41 -0.84,0.8 -1.18,1.18 -0.13,0.13 -0.23,0.2 -0.31,0.2 -0.12,0 -0.18,-0.06 -0.18,-0.19 0,-0.04 0.03,-0.13 0.1,-0.28 0.22,-0.3 0.44,-0.6 0.65,-0.91 0.32,-0.46 0.48,-0.78 0.48,-0.98 0,-0.08 -0.03,-0.12 -0.08,-0.12 -0.03,0 -0.08,0.02 -0.17,0.05 -0.47,0.35 -1.13,0.85 -2,1.49l-0.1 0c-0.06,0 -0.09,0 -0.09,-0.02 0,-0.03 0.05,-0.08 0.15,-0.14 0.64,-0.51 1.36,-1.05 2.14,-1.64 0.11,-0.1 0.25,-0.14 0.43,-0.14 0.18,0 0.27,0.08 0.27,0.25 0,0.03 -0.01,0.09 -0.02,0.16 -0.19,0.32 -0.42,0.73 -0.71,1.23 -0.04,0.07 -0.05,0.11 -0.05,0.13 0,0 0.01,0.01 0.02,0.01l0.05 -0.01c0.34,-0.3 0.68,-0.59 1.02,-0.89 0.52,-0.44 0.9,-0.66 1.13,-0.66 0.3,0 0.45,0.1 0.45,0.29 0,0.16 -0.09,0.42 -0.26,0.75 -0.18,0.34 -0.27,0.52 -0.27,0.55 0,0.02 0.01,0.04 0.02,0.04 0.04,0 0.11,-0.03 0.2,-0.1l2.87 -2.17c0.09,-0.07 0.19,-0.11 0.29,-0.11 0.06,0 0.11,0.01 0.14,0.04 0.02,0.02 0.04,0.06 0.04,0.12 0,0.06 -0.02,0.11 -0.06,0.16 -0.25,0.37 -0.52,0.74 -0.78,1.12 -0.32,0.48 -0.47,0.89 -0.47,1.24 0,0.22 0.12,0.33 0.36,0.32 0.28,-0.01 0.6,-0.12 0.96,-0.35 0.3,-0.18 0.59,-0.36 0.89,-0.55 0.02,-0.03 0.05,-0.04 0.08,-0.04 0.03,0 0.04,0.02 0.04,0.06zm5.01 -0.69c0,0.13 -0.1,0.25 -0.32,0.35 -0.21,0.11 -0.43,0.16 -0.66,0.16 -0.26,0 -0.6,-0.09 -1.02,-0.26 -0.42,-0.17 -0.75,-0.25 -0.99,-0.25 -0.11,0 -0.25,0.04 -0.43,0.13 -0.19,0.08 -0.3,0.13 -0.35,0.13l-0.02 -0.02c0,-0.06 0.11,-0.17 0.33,-0.31 0.26,-0.17 0.53,-0.25 0.81,-0.25 0.23,0 0.57,0.09 1.02,0.28 0.45,0.19 0.76,0.28 0.91,0.28 0.18,0 0.34,-0.04 0.48,-0.14 0.14,-0.1 0.21,-0.15 0.2,-0.15 0.03,0 0.04,0.02 0.04,0.05zm4.6 0.37c0.11,-0.13 0.25,-0.3 0.42,-0.5 0.17,-0.2 0.33,-0.39 0.48,-0.58 0.08,-0.05 0.16,-0.07 0.25,-0.04 0.08,0.03 0.1,0.06 0.06,0.11 -0.27,0.41 -0.47,0.78 -0.6,1.1 -0.13,0.33 -0.2,0.55 -0.2,0.68 0,0.23 0.11,0.35 0.32,0.35 0.32,0 0.91,-0.29 1.75,-0.87 0.02,-0.02 0.07,-0.05 0.14,-0.1 0.07,-0.05 0.11,-0.07 0.14,-0.07 0.03,0 0.04,0.02 0.04,0.06 0,0.05 -0.07,0.13 -0.2,0.22 -1.15,0.76 -1.91,1.14 -2.3,1.14 -0.25,0 -0.38,-0.14 -0.38,-0.44 0,-0.09 0.01,-0.19 0.03,-0.3 0.02,-0.1 0.05,-0.2 0.08,-0.28 0.04,-0.08 0.06,-0.15 0.09,-0.21 0.02,-0.05 0.03,-0.07 0.03,-0.06 0,-0.04 -0.01,-0.06 -0.04,-0.06 -0.06,0.07 -0.17,0.18 -0.3,0.32 -0.14,0.14 -0.29,0.27 -0.45,0.41 -0.15,0.14 -0.31,0.26 -0.46,0.35 -0.16,0.1 -0.29,0.14 -0.38,0.14 -0.11,-0.01 -0.18,-0.05 -0.2,-0.12 -0.03,-0.07 -0.03,-0.16 0,-0.26 0.02,-0.1 0.07,-0.21 0.13,-0.33 0.07,-0.12 0.14,-0.23 0.21,-0.34 0.02,-0.03 0.05,-0.08 0.1,-0.16 0.04,-0.08 0.09,-0.16 0.13,-0.23 0.04,-0.07 0.07,-0.13 0.09,-0.18 0.02,-0.05 0.01,-0.06 -0.03,-0.03 -0.01,-0.02 -0.04,0.01 -0.1,0.08 -0.06,0.07 -0.14,0.16 -0.24,0.27 -0.11,0.11 -0.22,0.22 -0.36,0.35 -0.13,0.12 -0.28,0.24 -0.45,0.34 -0.12,0.07 -0.24,0.15 -0.37,0.23 -0.13,0.07 -0.25,0.14 -0.38,0.2 -0.12,0.06 -0.25,0.11 -0.37,0.15 -0.13,0.03 -0.25,0.05 -0.37,0.04 -0.13,-0.01 -0.24,-0.04 -0.35,-0.09 -0.1,-0.05 -0.16,-0.16 -0.16,-0.34 0,-0.1 0.03,-0.19 0.08,-0.26 0.05,-0.08 0.1,-0.11 0.16,-0.11 0.04,0 0.08,0.02 0.11,0.07 0.03,0.04 0.06,0.1 0.09,0.16 0.04,0.06 0.08,0.11 0.13,0.15 0.04,0.05 0.11,0.07 0.19,0.07l0.08 0c0.08,0 0.26,-0.06 0.54,-0.19 0.51,-0.24 0.94,-0.53 1.28,-0.88 0.35,-0.35 0.66,-0.71 0.93,-1.07 0.14,-0.13 0.24,-0.2 0.31,-0.2 0.02,0 0.06,0.01 0.1,0.03 0.04,0.02 0.07,0.06 0.08,0.12 0.02,0.05 0,0.13 -0.04,0.23 -0.04,0.09 -0.12,0.21 -0.24,0.36 -0.07,0.08 -0.16,0.19 -0.26,0.33 -0.09,0.15 -0.19,0.31 -0.29,0.47 -0.09,0.17 -0.18,0.33 -0.26,0.47 -0.08,0.15 -0.13,0.26 -0.16,0.32 0.01,0.07 0.07,0.08 0.19,0.01 0.11,-0.06 0.25,-0.15 0.4,-0.27 0.15,-0.12 0.3,-0.25 0.45,-0.4 0.15,-0.14 0.26,-0.26 0.33,-0.36zm6.97 0.32c0,0.11 -0.28,0.32 -0.85,0.63 -0.6,0.33 -1.03,0.5 -1.29,0.5 -0.48,0 -0.72,-0.26 -0.72,-0.76 0,-0.14 0.08,-0.3 0.23,-0.47 0,-0.01 -0.01,-0.01 -0.02,-0.01 0.01,0 -0.24,0.19 -0.74,0.57 -0.51,0.38 -0.87,0.57 -1.1,0.57 -0.21,0 -0.31,-0.09 -0.31,-0.26 0,-0.42 0.35,-0.92 1.06,-1.48 0.67,-0.54 1.2,-0.81 1.57,-0.81 0.06,0.01 0.12,0.04 0.19,0.09 0.07,0.05 0.1,0.09 0.1,0.11 0,0.01 0,0.02 -0.01,0.03 -0.51,0 -1.17,0.4 -1.97,1.2 -0.26,0.26 -0.39,0.48 -0.39,0.65 0,0.07 0.03,0.1 0.1,0.1 0.2,0 0.59,-0.24 1.16,-0.71 0.46,-0.38 0.78,-0.69 0.98,-0.92 0.09,-0.11 0.15,-0.17 0.19,-0.17 0.09,0 0.14,0.07 0.14,0.2 0,0.04 -0.06,0.15 -0.18,0.31 -0.4,0.55 -0.6,0.89 -0.6,1.04 0,0.26 0.15,0.39 0.43,0.39 0.47,0 1.11,-0.27 1.91,-0.82 0.03,-0.03 0.05,-0.04 0.08,-0.04 0.03,0 0.04,0.02 0.04,0.06zm1.95 1.06c-0.17,0.05 -0.33,0.1 -0.48,0.14 -0.15,0.03 -0.29,0.05 -0.41,0.05 -0.13,0 -0.23,-0.02 -0.32,-0.07 -0.09,-0.04 -0.14,-0.13 -0.17,-0.25 -0.03,-0.09 0,-0.2 0.09,-0.35 0.09,-0.14 0.2,-0.29 0.34,-0.45 0.13,-0.15 0.28,-0.31 0.43,-0.47 0.15,-0.16 0.29,-0.31 0.4,-0.44 0.12,-0.14 0.2,-0.25 0.25,-0.34 0.05,-0.08 0.03,-0.14 -0.05,-0.15 -0.04,-0.06 -0.14,-0.04 -0.28,0.05 -0.14,0.09 -0.31,0.22 -0.51,0.37 -0.19,0.16 -0.39,0.33 -0.61,0.5 -0.22,0.18 -0.42,0.31 -0.6,0.41l-0.01 0c-0.02,0 -0.04,-0.01 -0.05,-0.05 -0.02,-0.04 -0.02,-0.06 -0.02,-0.08 0.22,-0.15 0.45,-0.32 0.69,-0.51 0.24,-0.2 0.46,-0.38 0.68,-0.56 0.22,-0.17 0.41,-0.32 0.57,-0.44 0.17,-0.12 0.29,-0.18 0.38,-0.18 0.11,-0.02 0.2,0.01 0.27,0.09 0.06,0.08 0.11,0.15 0.13,0.22 0.02,0.15 -0.03,0.32 -0.16,0.49 -0.14,0.18 -0.35,0.4 -0.66,0.68 -0.15,0.14 -0.3,0.29 -0.43,0.45 -0.12,0.16 -0.22,0.3 -0.27,0.43 -0.06,0.12 -0.06,0.22 -0.02,0.29 0.05,0.07 0.17,0.08 0.36,0.04 0.2,0 0.37,-0.02 0.53,-0.06 0.15,-0.04 0.31,-0.1 0.47,-0.18 0.17,-0.08 0.34,-0.17 0.53,-0.29 0.19,-0.11 0.41,-0.24 0.67,-0.39 0.02,-0.01 0.03,-0.02 0.04,-0.03 0.01,-0.01 0.02,-0.01 0.04,-0.01 0.01,0 0.02,0.03 0.02,0.09 0,0.06 -0.03,0.09 -0.07,0.1 -0.21,0.14 -0.37,0.25 -0.5,0.33 -0.13,0.09 -0.25,0.15 -0.37,0.21 -0.11,0.06 -0.24,0.11 -0.37,0.16 -0.13,0.05 -0.31,0.12 -0.53,0.2zm6.13 -1.06c0,0.11 -0.29,0.32 -0.86,0.63 -0.6,0.33 -1.02,0.5 -1.28,0.5 -0.48,0 -0.72,-0.26 -0.72,-0.76 0,-0.14 0.07,-0.3 0.22,-0.47 0,-0.01 0,-0.01 -0.01,-0.01 0.01,0 -0.24,0.19 -0.75,0.57 -0.5,0.38 -0.87,0.57 -1.09,0.57 -0.21,0 -0.32,-0.09 -0.32,-0.26 0,-0.42 0.36,-0.92 1.07,-1.48 0.67,-0.54 1.19,-0.81 1.57,-0.81 0.06,0.01 0.12,0.04 0.19,0.09 0.07,0.05 0.1,0.09 0.1,0.11 0,0.01 0,0.02 -0.01,0.03 -0.52,0 -1.18,0.4 -1.98,1.2 -0.25,0.26 -0.38,0.48 -0.38,0.65 0,0.07 0.03,0.1 0.09,0.1 0.21,0 0.59,-0.24 1.16,-0.71 0.46,-0.38 0.79,-0.69 0.98,-0.92 0.1,-0.11 0.16,-0.17 0.2,-0.17 0.09,0 0.13,0.07 0.13,0.2 0,0.04 -0.06,0.15 -0.17,0.31 -0.4,0.55 -0.6,0.89 -0.6,1.04 0,0.26 0.14,0.39 0.43,0.39 0.47,0 1.1,-0.27 1.91,-0.82 0.02,-0.03 0.05,-0.04 0.08,-0.04 0.03,0 0.04,0.02 0.04,0.06z"/>
    <path fill="white" fill-rule="nonzero" d="M82.17 40.98c0,0.04 -0.07,0.12 -0.2,0.22l-1.91 1.4c-0.02,0.71 -0.35,1.66 -0.99,2.84 -0.6,1.1 -1.29,2.08 -2.06,2.92 -0.82,0.9 -1.47,1.34 -1.93,1.33 -0.16,0 -0.29,-0.06 -0.4,-0.17 -0.12,-0.11 -0.17,-0.25 -0.17,-0.41 0,-0.68 0.41,-1.58 1.24,-2.69 0.64,-0.83 1.42,-1.69 2.36,-2.59 0.83,-0.77 1.3,-1.16 1.41,-1.16 0,-0.05 -0.01,-0.1 -0.04,-0.15 -0.13,-0.23 -0.31,-0.34 -0.54,-0.34 -0.09,0 -0.19,0.02 -0.3,0.05 -0.22,0.08 -0.36,0.11 -0.4,0.11 -0.03,0 -0.05,-0.02 -0.06,-0.05 0,-0.09 0.09,-0.18 0.28,-0.25 0.29,-0.13 0.65,-0.37 1.06,-0.73 0.49,-0.44 0.73,-0.79 0.73,-1.05 0,-0.16 -0.07,-0.24 -0.22,-0.24 -0.13,0 -0.41,0.15 -0.84,0.44 -0.34,0.25 -0.68,0.5 -1.02,0.75 -0.03,0.03 -0.06,0.04 -0.08,0.04 -0.02,0 -0.03,-0.05 -0.03,-0.15 0.03,-0.02 0.19,-0.15 0.49,-0.38 0.31,-0.23 0.62,-0.48 0.94,-0.73 0.31,-0.25 0.6,-0.38 0.86,-0.38 0.33,0 0.5,0.17 0.5,0.52 0,0.43 -0.55,0.99 -1.63,1.7 -0.07,0.07 -0.1,0.11 -0.1,0.14 0,0.04 0.03,0.06 0.1,0.06 0.4,0 0.67,0.11 0.8,0.35 0.21,-0.12 0.55,-0.36 1.01,-0.73 0.42,-0.33 0.76,-0.56 1.02,-0.69 0.03,-0.03 0.05,-0.04 0.08,-0.04 0.03,0 0.04,0.02 0.04,0.06zm-2.58 1.98c0,-0.03 0,-0.05 -0.01,-0.05 -0.21,0 -0.69,0.39 -1.45,1.16 -0.81,0.81 -1.51,1.64 -2.1,2.5 -0.71,1.04 -1.06,1.85 -1.06,2.43 0,0.21 0.06,0.32 0.2,0.32 0.28,0 0.78,-0.4 1.52,-1.2 0.74,-0.8 1.38,-1.65 1.93,-2.57 0.65,-1.07 0.97,-1.93 0.97,-2.59zm7.03 -1.98c0,0.05 -0.07,0.12 -0.21,0.22 -1.13,0.76 -1.9,1.14 -2.29,1.14 -0.26,0 -0.39,-0.14 -0.39,-0.44 0,-0.16 0.03,-0.33 0.1,-0.5 0.09,-0.23 0.14,-0.35 0.14,-0.36 0,-0.03 -0.02,-0.05 -0.04,-0.05 -0.01,0 -0.04,0.01 -0.07,0.03 -0.21,0.2 -0.5,0.44 -0.89,0.73 -0.49,0.37 -0.84,0.55 -1.03,0.55 -0.22,0 -0.33,-0.11 -0.33,-0.33 0,-0.13 0.16,-0.49 0.48,-1.07 0.32,-0.58 0.48,-0.92 0.48,-1.02 0,-0.1 -0.08,-0.15 -0.25,-0.15 -0.03,0 -0.05,-0.05 -0.05,-0.16 0.08,-0.03 0.17,-0.04 0.26,-0.04 0.32,0 0.48,0.09 0.48,0.27 0,0.2 -0.14,0.55 -0.42,1.02 -0.29,0.48 -0.43,0.78 -0.43,0.9 0,0.07 0.03,0.11 0.1,0.11 0.14,0 0.5,-0.24 1.08,-0.73 0.57,-0.49 1.02,-0.93 1.33,-1.33 0.14,-0.13 0.24,-0.2 0.31,-0.2 0.11,0 0.17,0.06 0.17,0.18 0,0.06 -0.03,0.14 -0.09,0.25 -0.55,0.82 -0.83,1.36 -0.83,1.61 0,0.23 0.11,0.35 0.32,0.35 0.32,0 0.9,-0.29 1.75,-0.87 0.05,-0.04 0.11,-0.08 0.19,-0.13 0.03,-0.03 0.06,-0.04 0.09,-0.04 0.02,0 0.04,0.02 0.04,0.06zm1.23 0.76c-0.03,0.03 -0.07,0.08 -0.11,0.14 -0.05,0.06 -0.09,0.12 -0.13,0.18 -0.05,0.06 -0.09,0.11 -0.12,0.15 -0.04,0.04 -0.07,0.06 -0.08,0.06 -0.12,0 -0.18,-0.06 -0.18,-0.19 0,-0.05 0.03,-0.14 0.09,-0.28 0.11,-0.15 0.22,-0.3 0.33,-0.45 0.11,-0.15 0.22,-0.3 0.32,-0.46 0.32,-0.46 0.48,-0.78 0.48,-0.98 0,-0.08 -0.02,-0.12 -0.08,-0.12 -0.04,0 -0.09,0.02 -0.16,0.05 -0.24,0.18 -0.53,0.39 -0.85,0.64 -0.33,0.25 -0.71,0.53 -1.16,0.85l-0.09 0c-0.07,0 -0.1,0 -0.1,-0.02 0,-0.02 0.05,-0.07 0.15,-0.14 0.32,-0.26 0.66,-0.52 1.02,-0.79 0.35,-0.28 0.73,-0.56 1.12,-0.85 0.1,-0.1 0.25,-0.14 0.43,-0.14 0.18,0 0.28,0.08 0.28,0.25 0,0.18 -0.14,0.48 -0.4,0.88 -0.02,0.04 -0.05,0.07 -0.07,0.1 -0.03,0.04 -0.05,0.07 -0.07,0.11 0.07,0 0.16,0 0.26,0 0.1,0 0.22,-0.01 0.35,-0.02 0.22,-0.01 0.41,-0.01 0.56,0 0.04,-0.06 0.08,-0.13 0.11,-0.19 0.04,-0.06 0.08,-0.13 0.13,-0.21 0.1,-0.15 0.2,-0.3 0.29,-0.43 0.1,-0.12 0.2,-0.24 0.3,-0.34 0.06,-0.08 0.17,-0.12 0.3,-0.12 0.08,0.01 0.11,0.04 0.11,0.06 0,0 -0.16,0.27 -0.48,0.81 -0.32,0.53 -0.48,0.92 -0.48,1.16 0,0.28 0.12,0.42 0.37,0.42 0.31,0 0.77,-0.27 1.37,-0.81 0.03,-0.03 0.05,-0.04 0.08,-0.04 0.03,0 0.04,0.02 0.04,0.05 0,0.06 -0.09,0.15 -0.27,0.28 -0.3,0.26 -0.57,0.45 -0.81,0.59 -0.23,0.13 -0.46,0.2 -0.67,0.2 -0.42,0 -0.62,-0.18 -0.62,-0.53 0,-0.23 0.05,-0.46 0.15,-0.7 -0.11,-0.01 -0.24,-0.02 -0.39,-0.02 -0.16,0 -0.32,0.01 -0.51,0.03 -0.13,0.01 -0.21,0.01 -0.25,0.01 -0.03,0 -0.06,0 -0.08,0 -0.13,0.19 -0.24,0.36 -0.34,0.53 -0.09,0.16 -0.14,0.26 -0.14,0.28zm11.79 -6.36c-0.11,0.01 -0.29,0.02 -0.55,0.01 -0.25,0 -0.54,0 -0.87,0.01 -0.32,0.02 -0.66,0.05 -1,0.09 -0.34,0.04 -0.65,0.11 -0.93,0.2 -0.28,0.1 -0.51,0.23 -0.68,0.38 -0.17,0.15 -0.24,0.35 -0.22,0.6 0.01,0.18 0.1,0.39 0.26,0.63 0.15,0.23 0.32,0.49 0.49,0.77 0.18,0.28 0.33,0.57 0.45,0.88 0.12,0.31 0.15,0.63 0.09,0.96 0,0.21 -0.04,0.44 -0.12,0.71 -0.08,0.28 -0.22,0.53 -0.42,0.77 -0.21,0.28 -0.45,0.49 -0.72,0.65 -0.27,0.16 -0.53,0.23 -0.78,0.23 -0.37,0 -0.55,-0.23 -0.55,-0.69 0,-0.6 0.29,-1.21 0.88,-1.81 0.5,-0.5 0.86,-0.75 1.09,-0.75 0.15,0 0.22,0.04 0.22,0.13 0,0.04 -0.02,0.08 -0.08,0.11 -0.23,0.05 -0.53,0.28 -0.9,0.71 -0.46,0.51 -0.69,1.01 -0.69,1.49 0,0.31 0.11,0.47 0.33,0.47 0.33,0 0.65,-0.19 0.98,-0.57 0.09,-0.11 0.16,-0.23 0.24,-0.36 0.07,-0.13 0.14,-0.25 0.19,-0.38 0.06,-0.13 0.1,-0.26 0.13,-0.38 0.04,-0.13 0.05,-0.24 0.05,-0.33 0,-0.22 -0.01,-0.4 -0.04,-0.55 -0.03,-0.15 -0.07,-0.28 -0.12,-0.39 -0.06,-0.12 -0.13,-0.23 -0.21,-0.34 -0.08,-0.11 -0.18,-0.25 -0.28,-0.4 -0.11,-0.17 -0.21,-0.33 -0.32,-0.49 -0.1,-0.15 -0.18,-0.31 -0.26,-0.46 -0.07,-0.16 -0.12,-0.32 -0.14,-0.47 -0.03,-0.16 -0.01,-0.32 0.05,-0.49 0.13,-0.22 0.35,-0.41 0.63,-0.58 0.29,-0.16 0.61,-0.3 0.96,-0.4 0.36,-0.11 0.73,-0.19 1.12,-0.25 0.39,-0.05 0.77,-0.08 1.12,-0.09 0.36,-0.01 0.69,0 0.98,0.04 0.3,0.04 0.52,0.09 0.68,0.15 0.13,0.06 0.19,0.1 0.17,0.15 -0.01,0.04 -0.12,0.05 -0.33,0.04l-0.9 0zm1.96 5.6c0,0.05 -0.07,0.12 -0.21,0.22 -1.13,0.76 -1.89,1.14 -2.29,1.14 -0.26,0 -0.39,-0.14 -0.39,-0.44 0,-0.16 0.04,-0.33 0.1,-0.5 0.09,-0.23 0.14,-0.35 0.14,-0.36 0,-0.03 -0.02,-0.05 -0.04,-0.05 -0.01,0 -0.04,0.01 -0.07,0.03 -0.21,0.2 -0.5,0.44 -0.89,0.73 -0.49,0.37 -0.84,0.55 -1.03,0.55 -0.22,0 -0.33,-0.11 -0.33,-0.33 0,-0.13 0.16,-0.49 0.48,-1.07 0.32,-0.58 0.48,-0.92 0.48,-1.02 0,-0.1 -0.08,-0.15 -0.25,-0.15 -0.03,0 -0.05,-0.05 -0.05,-0.16 0.08,-0.03 0.17,-0.04 0.26,-0.04 0.32,0 0.49,0.09 0.49,0.27 0,0.2 -0.15,0.55 -0.43,1.02 -0.29,0.48 -0.43,0.78 -0.43,0.9 0,0.07 0.03,0.11 0.1,0.11 0.14,0 0.5,-0.24 1.08,-0.73 0.57,-0.49 1.02,-0.93 1.33,-1.33 0.14,-0.13 0.24,-0.2 0.31,-0.2 0.12,0 0.18,0.06 0.18,0.18 0,0.06 -0.04,0.14 -0.1,0.25 -0.55,0.82 -0.83,1.36 -0.83,1.61 0,0.23 0.11,0.35 0.32,0.35 0.32,0 0.9,-0.29 1.75,-0.87 0.05,-0.04 0.11,-0.08 0.19,-0.13 0.03,-0.03 0.06,-0.04 0.09,-0.04 0.02,0 0.04,0.02 0.04,0.06zm7.32 0.08c0,0.03 -0.05,0.08 -0.15,0.15 -0.1,0.07 -0.21,0.15 -0.35,0.24 -0.14,0.08 -0.28,0.16 -0.43,0.24 -0.15,0.09 -0.27,0.16 -0.37,0.22 -0.27,0.17 -0.51,0.29 -0.73,0.36 -0.21,0.08 -0.4,0.11 -0.56,0.11 -0.19,0 -0.36,-0.07 -0.51,-0.2 -0.14,-0.14 -0.22,-0.3 -0.22,-0.47 0,-0.28 0.08,-0.56 0.23,-0.84 0.15,-0.28 0.35,-0.53 0.58,-0.75 0.23,-0.22 0.49,-0.4 0.76,-0.55 0.27,-0.14 0.53,-0.21 0.78,-0.21 0.15,0 0.26,0.03 0.33,0.08 0.07,0.06 0.13,0.14 0.17,0.25 0.02,0.05 0,0.14 -0.04,0.28 -0.04,0.14 -0.18,0.25 -0.42,0.33 -0.04,0.02 -0.06,0.01 -0.07,-0.03 -0.02,-0.04 -0.01,-0.07 0.02,-0.1 0.11,-0.1 0.17,-0.19 0.18,-0.27 0,-0.08 0,-0.15 -0.03,-0.2 -0.03,-0.05 -0.07,-0.09 -0.11,-0.11 -0.05,-0.01 -0.07,-0.01 -0.07,0 0,-0.02 -0.03,-0.04 -0.1,-0.04 -0.14,0 -0.31,0.07 -0.52,0.2 -0.2,0.13 -0.4,0.29 -0.6,0.48 -0.19,0.19 -0.35,0.41 -0.49,0.64 -0.13,0.23 -0.2,0.44 -0.2,0.64 0,0.35 0.15,0.53 0.46,0.53 0.24,0 0.53,-0.07 0.89,-0.19 0.35,-0.13 0.77,-0.36 1.25,-0.68 0.02,-0.02 0.06,-0.05 0.13,-0.1 0.07,-0.04 0.12,-0.07 0.14,-0.07 0.03,0 0.05,0.02 0.05,0.06zm-4.67 -0.71c0.02,-0.23 -0.01,-0.39 -0.08,-0.49 -0.07,-0.09 -0.18,-0.14 -0.33,-0.14 -0.24,0 -0.53,0.11 -0.87,0.34 -0.33,0.23 -0.74,0.51 -1.22,0.83 -0.01,0.01 -0.03,0.03 -0.08,0.06 -0.04,0.03 -0.08,0.06 -0.13,0.09 -0.05,0.03 -0.1,0.06 -0.15,0.08 -0.04,0.02 -0.07,0.04 -0.08,0.04 -0.03,0 -0.04,-0.03 -0.04,-0.07 0,-0.03 0.06,-0.1 0.2,-0.2 0.13,-0.11 0.29,-0.23 0.47,-0.36 0.19,-0.12 0.37,-0.25 0.56,-0.38 0.19,-0.12 0.34,-0.21 0.44,-0.28 0.26,-0.16 0.48,-0.27 0.67,-0.33 0.19,-0.06 0.36,-0.1 0.53,-0.1 0.19,0 0.34,0.06 0.43,0.18 0.1,0.12 0.14,0.32 0.11,0.6 -0.03,0.27 -0.14,0.54 -0.32,0.8 -0.18,0.25 -0.41,0.48 -0.66,0.68 -0.26,0.2 -0.53,0.35 -0.82,0.46 -0.28,0.11 -0.55,0.15 -0.8,0.13 -0.28,-0.03 -0.41,-0.16 -0.38,-0.39 0.01,-0.14 0.23,-0.37 0.64,-0.7 0.04,-0.03 0.08,-0.04 0.13,-0.04 0.07,0.01 0.1,0.06 0.1,0.13 -0.01,0.05 -0.03,0.08 -0.06,0.1 -0.03,0.02 -0.09,0.11 -0.19,0.26 -0.1,0.19 -0.16,0.32 -0.17,0.4 0,0.03 0.03,0.05 0.1,0.06 0.14,0.02 0.31,-0.03 0.53,-0.13 0.22,-0.11 0.43,-0.25 0.64,-0.42 0.21,-0.18 0.4,-0.37 0.56,-0.58 0.16,-0.22 0.25,-0.42 0.27,-0.63zm0.86 1.11c0.11,-0.16 0.25,-0.29 0.44,-0.41 0.18,-0.11 0.34,-0.2 0.48,-0.25 0.02,0.07 0.01,0.12 -0.04,0.15 -0.05,0.04 -0.09,0.06 -0.13,0.08 -0.14,0.08 -0.31,0.2 -0.51,0.36 -0.19,0.16 -0.35,0.35 -0.47,0.57 -0.07,0.03 -0.12,0.06 -0.13,0.09 -0.02,0.02 -0.04,0.03 -0.06,0.03 -0.04,-0.01 -0.09,-0.04 -0.12,-0.08 -0.04,-0.05 -0.05,-0.11 -0.03,-0.18 0.02,-0.01 0.05,-0.06 0.11,-0.16 0.06,-0.1 0.11,-0.2 0.15,-0.31 0.04,-0.1 0.09,-0.23 0.15,-0.38 0.07,-0.15 0.13,-0.31 0.18,-0.46 0.02,-0.07 0.04,-0.13 0.07,-0.2 0.02,-0.06 0.04,-0.13 0.07,-0.2 -0.03,0 -0.05,0.02 -0.07,0.06 -0.23,0.34 -0.48,0.56 -0.76,0.67 -0.02,-0.15 -0.01,-0.24 0.04,-0.26 0.15,-0.09 0.32,-0.21 0.52,-0.36 0.19,-0.16 0.34,-0.35 0.46,-0.57 0.08,-0.04 0.12,-0.07 0.14,-0.09 0.02,-0.02 0.04,-0.03 0.06,-0.03 0.04,0.01 0.09,0.03 0.12,0.08 0.04,0.04 0.05,0.1 0.03,0.18 -0.02,0.01 -0.06,0.06 -0.11,0.16 -0.06,0.09 -0.11,0.2 -0.15,0.31 -0.05,0.13 -0.11,0.29 -0.18,0.5 -0.08,0.21 -0.16,0.44 -0.26,0.7zm7.48 -0.48c-0.04,0.12 -0.35,0.35 -0.94,0.7 -0.68,0.4 -1.22,0.74 -1.62,0.99 -1.24,2.5 -2.01,3.99 -2.31,4.49 -0.87,1.47 -1.6,2.21 -2.19,2.21 -0.27,0 -0.41,-0.18 -0.41,-0.54 0,-2 1.5,-4.05 4.5,-6.13l0.86 -1.79c0,-0.04 -0.02,-0.06 -0.04,-0.06 -1.02,0.77 -1.64,1.16 -1.87,1.16 -0.22,0 -0.33,-0.11 -0.33,-0.33 0,-0.13 0.14,-0.46 0.42,-0.99 0.28,-0.54 0.42,-0.85 0.42,-0.94 0,-0.1 -0.08,-0.16 -0.25,-0.16 -0.03,0 -0.05,-0.05 -0.05,-0.16 0.08,-0.03 0.17,-0.04 0.26,-0.04 0.32,0 0.48,0.09 0.48,0.27 0,0.21 -0.12,0.54 -0.37,1 -0.25,0.46 -0.37,0.75 -0.37,0.87 0,0.07 0.03,0.11 0.09,0.11 0.23,0 0.58,-0.19 1.07,-0.58 0.55,-0.44 0.96,-0.92 1.24,-1.42 0.14,-0.14 0.24,-0.21 0.3,-0.21 0.12,0 0.18,0.06 0.18,0.18 0,0.06 -0.03,0.15 -0.09,0.25 -0.36,0.56 -0.81,1.38 -1.36,2.45 0.49,-0.3 0.94,-0.56 1.36,-0.78 0.46,-0.27 0.76,-0.46 0.89,-0.57 0.03,-0.03 0.06,-0.04 0.09,-0.04 0.03,0 0.04,0.02 0.04,0.06zm-3.14 2.09c-2.63,1.88 -3.94,3.76 -3.94,5.65 0,0.24 0.07,0.36 0.23,0.36 0.39,0 0.96,-0.66 1.71,-1.99 0.49,-0.86 1.16,-2.2 2,-4.02zm11.48 -2.09c0,0.05 -0.07,0.12 -0.21,0.22 -0.65,0.44 -1.02,0.68 -1.09,0.73 -0.41,0.25 -0.76,0.37 -1.04,0.37 -0.15,0 -0.28,-0.05 -0.39,-0.16 -0.1,-0.11 -0.16,-0.25 -0.16,-0.4 0,-0.47 0.3,-1.12 0.89,-1.98 0.04,-0.06 0.07,-0.11 0.07,-0.12 0,-0.01 -0.01,-0.02 -0.02,-0.02 -0.04,0 -0.1,0.03 -0.19,0.1 -0.52,0.39 -1.09,0.81 -1.71,1.28 -0.27,0.23 -0.66,0.56 -1.18,0.97 -0.07,0.06 -0.17,0.11 -0.3,0.15 -0.07,0 -0.1,-0.04 -0.1,-0.14 0,-0.18 0.16,-0.48 0.46,-0.89 0.31,-0.41 0.47,-0.69 0.47,-0.86 0,-0.16 -0.08,-0.23 -0.22,-0.23 -0.22,0 -0.67,0.29 -1.33,0.89 -0.45,0.41 -0.85,0.8 -1.19,1.18 -0.13,0.13 -0.23,0.2 -0.3,0.2 -0.12,0 -0.18,-0.06 -0.18,-0.19 0,-0.04 0.03,-0.13 0.1,-0.28 0.22,-0.3 0.43,-0.6 0.65,-0.91 0.32,-0.46 0.48,-0.78 0.48,-0.98 0,-0.08 -0.03,-0.12 -0.08,-0.12 -0.03,0 -0.09,0.02 -0.17,0.05 -0.47,0.35 -1.14,0.85 -2,1.49l-0.1 0c-0.06,0 -0.09,0 -0.09,-0.02 0,-0.03 0.05,-0.08 0.15,-0.14 0.64,-0.51 1.35,-1.05 2.14,-1.64 0.11,-0.1 0.25,-0.14 0.43,-0.14 0.18,0 0.27,0.08 0.27,0.25 0,0.03 -0.01,0.09 -0.03,0.16 -0.18,0.32 -0.42,0.73 -0.7,1.23 -0.04,0.07 -0.06,0.11 -0.06,0.13 0,0 0.01,0.01 0.03,0.01l0.04 -0.01c0.34,-0.3 0.68,-0.59 1.02,-0.89 0.53,-0.44 0.91,-0.66 1.14,-0.66 0.3,0 0.45,0.1 0.45,0.29 0,0.16 -0.09,0.42 -0.27,0.75 -0.18,0.34 -0.27,0.52 -0.27,0.55 0,0.02 0.01,0.04 0.03,0.04 0.04,0 0.1,-0.03 0.2,-0.1l2.87 -2.17c0.09,-0.07 0.19,-0.11 0.29,-0.11 0.06,0 0.11,0.01 0.14,0.04 0.02,0.02 0.04,0.06 0.04,0.12 0,0.06 -0.02,0.11 -0.06,0.16 -0.26,0.37 -0.52,0.74 -0.79,1.12 -0.31,0.48 -0.47,0.89 -0.47,1.24 0,0.22 0.12,0.33 0.36,0.32 0.29,-0.01 0.61,-0.12 0.97,-0.35 0.29,-0.18 0.59,-0.36 0.88,-0.55 0.03,-0.03 0.06,-0.04 0.09,-0.04 0.02,0 0.04,0.02 0.04,0.06zm3.24 0c0,0.06 -0.19,0.21 -0.56,0.45 -0.93,0.59 -1.6,0.88 -2.01,0.88 -0.59,0 -0.89,-0.34 -0.89,-1.04 0,-0.52 0.25,-1.04 0.75,-1.56 0.5,-0.52 0.98,-0.78 1.43,-0.78 0.14,0 0.21,0.07 0.21,0.2 0,0.31 -0.28,0.75 -0.82,1.32 -0.43,0.45 -0.79,0.76 -1.06,0.93 0.03,0.4 0.22,0.6 0.58,0.6 0.34,0 0.91,-0.23 1.71,-0.69 0.06,-0.03 0.24,-0.14 0.54,-0.33 0.03,-0.03 0.05,-0.04 0.08,-0.04 0.03,0 0.04,0.02 0.04,0.06zm-1.5 -1.59c0,-0.11 -0.03,-0.17 -0.1,-0.17 -0.23,0 -0.51,0.23 -0.84,0.69 -0.33,0.46 -0.5,0.88 -0.51,1.25 0.17,-0.06 0.45,-0.3 0.83,-0.72 0.41,-0.46 0.62,-0.81 0.62,-1.05zm5.52 1.59c0,0.12 -0.33,0.36 -0.99,0.71 -0.67,0.35 -1.47,0.53 -2.42,0.53 -0.54,0 -0.84,-0.06 -0.88,-0.17 0,-0.06 0.05,-0.09 0.15,-0.09 0.14,0.02 0.22,0.04 0.26,0.04 0.47,0 0.97,-0.24 1.51,-0.72 0.5,-0.45 0.76,-0.84 0.76,-1.16 0,-0.14 -0.09,-0.21 -0.27,-0.21 -0.86,0 -1.81,0.82 -2.83,2.46 -0.08,0.13 -0.58,1.11 -1.51,2.93 -0.92,1.83 -1.41,2.81 -1.47,2.94 -0.06,0.15 -0.15,0.23 -0.25,0.23 -0.04,0 -0.06,0 -0.08,-0.01 -0.06,-0.02 -0.08,-0.07 -0.08,-0.17 0,-0.33 2.07,-4.19 6.21,-11.59 0.07,-0.13 0.14,-0.2 0.21,-0.2 0.01,0 0.02,0.01 0.05,0.03 0.03,0.02 0.04,0.06 0.04,0.11 0,0.1 -0.02,0.18 -0.08,0.24 -0.01,0.02 -0.39,0.7 -1.13,2.04 -0.71,1.29 -1.07,1.97 -1.07,2.06 0,0 0.01,0.01 0.02,0.02 0.01,-0.02 0.04,-0.05 0.1,-0.11 0.22,-0.26 0.52,-0.54 0.91,-0.81 0.51,-0.35 0.96,-0.53 1.35,-0.53 0.28,0 0.43,0.11 0.43,0.33 0,0.68 -0.54,1.34 -1.62,1.98 0.82,0 1.67,-0.3 2.56,-0.9 0.02,-0.03 0.05,-0.04 0.08,-0.04 0.03,0 0.04,0.02 0.04,0.06zm4.5 0c0,0.05 -0.07,0.12 -0.21,0.22 -1.13,0.76 -1.89,1.14 -2.29,1.14 -0.26,0 -0.38,-0.14 -0.38,-0.44 0,-0.16 0.03,-0.33 0.09,-0.5 0.09,-0.23 0.14,-0.35 0.14,-0.36 0,-0.03 -0.01,-0.05 -0.04,-0.05 -0.01,0 -0.03,0.01 -0.07,0.03 -0.2,0.2 -0.5,0.44 -0.88,0.73 -0.5,0.37 -0.85,0.55 -1.04,0.55 -0.22,0 -0.33,-0.11 -0.33,-0.33 0,-0.13 0.16,-0.49 0.48,-1.07 0.33,-0.58 0.49,-0.92 0.49,-1.02 0,-0.1 -0.09,-0.15 -0.25,-0.15 -0.04,0 -0.06,-0.05 -0.06,-0.16 0.09,-0.03 0.17,-0.04 0.26,-0.04 0.33,0 0.49,0.09 0.49,0.27 0,0.2 -0.14,0.55 -0.43,1.02 -0.29,0.48 -0.43,0.78 -0.43,0.9 0,0.07 0.03,0.11 0.1,0.11 0.15,0 0.51,-0.24 1.08,-0.73 0.58,-0.49 1.02,-0.93 1.33,-1.33 0.14,-0.13 0.24,-0.2 0.31,-0.2 0.12,0 0.18,0.06 0.18,0.18 0,0.06 -0.03,0.14 -0.1,0.25 -0.55,0.82 -0.83,1.36 -0.83,1.61 0,0.23 0.11,0.35 0.32,0.35 0.32,0 0.91,-0.29 1.75,-0.87 0.05,-0.04 0.11,-0.08 0.2,-0.13 0.02,-0.03 0.05,-0.04 0.08,-0.04 0.03,0 0.04,0.02 0.04,0.06zm4.46 0c0,0.05 -0.07,0.12 -0.21,0.22 -1.13,0.76 -1.89,1.14 -2.29,1.14 -0.26,0 -0.38,-0.14 -0.38,-0.44 0,-0.16 0.03,-0.33 0.09,-0.5 0.09,-0.23 0.14,-0.35 0.14,-0.36 0,-0.03 -0.01,-0.05 -0.04,-0.05 -0.01,0 -0.03,0.01 -0.07,0.03 -0.2,0.2 -0.5,0.44 -0.88,0.73 -0.5,0.37 -0.85,0.55 -1.04,0.55 -0.22,0 -0.33,-0.11 -0.33,-0.33 0,-0.13 0.16,-0.49 0.48,-1.07 0.32,-0.58 0.49,-0.92 0.49,-1.02 0,-0.1 -0.09,-0.15 -0.25,-0.15 -0.04,0 -0.06,-0.05 -0.06,-0.16 0.08,-0.03 0.17,-0.04 0.26,-0.04 0.33,0 0.49,0.09 0.49,0.27 0,0.2 -0.14,0.55 -0.43,1.02 -0.29,0.48 -0.43,0.78 -0.43,0.9 0,0.07 0.03,0.11 0.1,0.11 0.15,0 0.51,-0.24 1.08,-0.73 0.58,-0.49 1.02,-0.93 1.33,-1.33 0.14,-0.13 0.24,-0.2 0.31,-0.2 0.12,0 0.18,0.06 0.18,0.18 0,0.06 -0.03,0.14 -0.1,0.25 -0.55,0.82 -0.83,1.36 -0.83,1.61 0,0.23 0.11,0.35 0.32,0.35 0.32,0 0.91,-0.29 1.75,-0.87 0.05,-0.04 0.11,-0.08 0.2,-0.13 0.02,-0.03 0.05,-0.04 0.08,-0.04 0.03,0 0.04,0.02 0.04,0.06z"/>
   </g>
  </g>
 </g>
</svg>
